<svg xmlns="http://www.w3.org/2000/svg" width="111" height="85" fill="none" viewBox="0 0 111 85"><path fill="#92C9EC" fill-rule="evenodd" d="M41.9556 56.1109L2.23464 28.0484 41.9556 0l39.7229 28.0626-39.7229 28.0483zM5.6504 37.4219l36.3053 25.587 19.3344-13.6987c-1.3055 2.9465-2.0859 6.1737-2.2236 9.5651L41.9557 70.9931 0 41.412l5.6504-3.9901zm53.619 25.9918l-17.3137 12.267-36.3053-25.587L0 54.0838 41.9557 83.665l19.124-13.5436c-.8849-2.1118-1.5023-4.3615-1.8103-6.7077z" clip-rule="evenodd"/><path fill="#103654" d="M104.835 72.7512l2.444-4.6555c.235-.4781.209-1.0328-.105-1.4556l-3.631-5.1545 4.468-4.4468c.377-.3744.505-.9091.358-1.4088l-1.597-5.0155c-.161-.5014-.583-.8678-1.111-.9653l-6.2386-1.0858-.0048-6.2768c-.0016-.5232-.2925-1.0135-.7604-1.2445l-4.7064-2.4259c-.4661-.2449-1.027-.2052-1.4654.0908l-5.1836 3.6179-4.4942-4.4477c-.3775-.3746-.9162-.5018-1.4219-.3418l-5.0554 1.5851c-.5057.16-.8748.578-.9573 1.0902l-1.0968 6.203-6.3406.0034c-.5274.0015-1.0077.2919-1.2545.7543l-2.4456 4.6694c-.2468.4625-.2069 1.0188.0932 1.4398l3.6447 5.1564-4.4816 4.4449c-.3636.3763-.5076.9231-.3446 1.4108l1.5975 5.0153c.1612.5017.5826.8678 1.111.9654l6.2385 1.086.0028 6.2905c.0016.5232.2943.9996.7604 1.2446l4.7083 2.4119c.1467.0758.311.1256.465.1458.3501.0459.7028-.0351 1.0004-.2364l5.1835-3.6181 4.4942 4.4479c.3635.3727.9163.5015 1.4221.3416l5.0553-1.5851c.4899-.1479.8748-.578.9573-1.0902l1.0949-6.1891 6.3426-.0173c.525.0124 1.008-.2919 1.254-.7543zm-16.3993-4.3821c-1.2485.3879-2.5459.5005-3.8342.3318-3.4028-.4459-6.2769-2.8297-7.3122-6.075-.713-2.242-.5087-4.6325.5818-6.7229 1.1045-2.0886 2.948-3.6281 5.2079-4.3356 1.2503-.4016 2.5476-.5145 3.8359-.3457 3.4029.4458 6.2752 2.8436 7.3104 6.0891 1.4777 4.6319-1.1206 9.5922-5.7896 11.0583z"/></svg>
