<svg  width="84" height="46" xmlns="http://www.w3.org/2000/svg" viewBox="0 0 84 46"><style>.st0{fill-rule:evenodd;clip-rule:evenodd;fill:#92c9ec}</style><path class="st0" d="M1 32.3c1.6-2.4 5.5-4.2 8.7-5.1 3.3-.9 4.3-3 4.1-4-.2-1-1-.7-1.7-2-.6-1.2-1-3.9-1-3.9s-1.5-.5-1.7-2.8c-.2-2.3 0-3.1.6-3.4.6-.3.8-.2.8-.2s-.4-3.3-.4-3.9c0-.9-.1-1.7.2-2.6.9-3.1 4.4-4.5 8.6-4.4 4.2.1 4.2 1.3 5.1 2.3.9.9 1.4.2 2.2 1.6.5.9 0 5 0 5-.1 1.1-.3 2-.3 2s.2 0 .8.2c.6.3.7 1.1.6 3.4-.2 2.3-1.7 2.8-1.7 2.8s-.4 2.7-1 3.9c-.7 1.4-1.5 1.1-1.7 2-.2 1 .8 3 4.1 4 3.3.9 7.1 2.8 8.7 5.1 1.2 1.8 1 4.9.9 6.3 0 .4-6.6 2.5-18.5 2.5-12 0-18.2-2-18.2-2.5-.2-1.4-.4-4.5.8-6.3zM48 32.3c1.6-2.4 5.5-4.2 8.7-5.1 3.3-.9 4.3-3 4.1-4-.2-1-1-.7-1.7-2-.6-1.2-1-3.9-1-3.9s-1.5-.5-1.7-2.8c-.2-2.3 0-3.1.6-3.4.6-.3.8-.2.8-.2s-.4-3.3-.4-3.9c0-.9-.1-1.7.2-2.6.9-3.1 4.4-4.5 8.6-4.4 4.2.1 4.2 1.3 5.1 2.3.9.9 1.4.2 2.2 1.6.5.9 0 5 0 5-.1 1.1-.3 2-.3 2s.2 0 .8.2c.6.3.7 1.1.6 3.4-.2 2.3-1.7 2.8-1.7 2.8s-.4 2.7-1 3.9c-.7 1.4-1.5 1.1-1.7 2-.2 1 .8 3 4.1 4 3.3.9 7.1 2.8 8.7 5.1 1.2 1.8 1 4.9.9 6.3 0 .4-6.6 2.5-18.5 2.5s-18.2-2-18.2-2.5c-.2-1.4-.4-4.5.8-6.3z"/><g><path class="st0" d="M41.8 44c-8.9 0-19-1.4-19.2-3.3-.2-1.7-.3-4.9 1-6.9 2.2-3.3 7.7-5.1 9.3-5.6 2.8-.8 3.5-2.4 3.4-2.8 0-.1 0-.1-.3-.3-.3-.2-.9-.6-1.3-1.5-.5-1-.9-2.8-1.1-3.7-.8-.5-1.6-1.5-1.8-3.3-.1-2-.2-3.7 1.1-4.3 0 0 .1 0 .1-.1-.1-1-.3-2.7-.3-3.2v-.5c0-.7 0-1.5.2-2.4C34 2.9 37.4 1 42.4 1h.3c3.6.1 4.6 1 5.5 2.2.1.1.2.3.3.4.2.2.3.2.5.3.6.2 1.2.4 1.8 1.5.5 1 .3 3.9.1 5.5-.1.4-.1.8-.2 1.2h.1c1.3.6 1.3 2.3 1.1 4.3-.1 1.8-1 2.8-1.8 3.3-.2.9-.5 2.7-1.1 3.7-.5.9-1 1.3-1.3 1.5l-.3.3c-.1.3.6 2 3.4 2.8 1.6.5 7.1 2.2 9.3 5.6 1.4 2 1.2 5.2 1 6.9-.1.5-.1 1.3-5.6 2.2-2.5.7-7.2 1.3-13.7 1.3z"/><path d="M42.4 2h.3c4.2.1 4.2 1.3 5.1 2.3.9.9 1.4.2 2.2 1.6.5.9 0 5 0 5-.1 1.1-.3 2-.3 2 .1 0 .3 0 .8.2.6.3.7 1.1.6 3.4-.2 2.3-1.7 2.8-1.7 2.8s-.4 2.7-1 3.9c-.7 1.4-1.5 1.1-1.7 2-.2 1 .8 3 4.1 4 3.3.9 7.1 2.8 8.7 5.1 1.2 1.8 1 4.9.9 6.3 0 .4-6.6 2.5-18.5 2.5s-18.2-2-18.2-2.5c-.2-1.4-.4-4.4.9-6.3 1.6-2.4 5.5-4.2 8.7-5.1 3.3-.9 4.3-3 4.1-4-.2-1-1-.7-1.7-2-.6-1.2-1-3.9-1-3.9s-1.5-.5-1.7-2.8c-.2-2.3 0-3.1.6-3.4.5-.2.7-.2.8-.2S34 9.7 34 9c0-.9-.1-1.7.2-2.6.7-3.1 4.2-4.4 8.2-4.4m0-2C37 0 33.2 2.2 32.2 5.8c-.3 1-.3 1.9-.2 2.6v.5c0 .4.1 1.6.2 2.6-1.5 1.1-1.3 3.3-1.2 5 .1 1.9 1 3.1 1.8 3.8.2 1 .6 2.6 1.1 3.6.4.8.9 1.3 1.3 1.6-.3.4-1 1.1-2.5 1.5-1.7.5-7.4 2.3-9.9 6-1.5 2.3-1.4 5.7-1.2 7.6.1 1.2.7 2.1 6.3 3.1 2.7.5 7.4 1.1 13.9 1.1 6.6 0 11.3-.6 14.1-1.1 3.7-.7 6.2-1.3 6.4-3.1.2-1.8.4-5.3-1.2-7.6-2.4-3.6-8.2-5.5-9.9-6-1.5-.4-2.2-1.1-2.5-1.5.4-.3.9-.8 1.3-1.6.5-1 .9-2.6 1.1-3.6.9-.7 1.7-1.9 1.8-3.8.1-1.7.3-3.8-1.1-5 0-.2 0-.3.1-.5.5-4.7-.1-5.8-.2-6.1-.7-1.4-1.6-1.8-2.4-2h-.1l-.3-.3c-1-1.3-2.2-2.5-6.3-2.6h-.2z" fill="#fff"/></g></svg>
