<svg xmlns="http://www.w3.org/2000/svg" width="77" height="97" fill="none" viewBox="0 0 77 97"><path fill="#92C9EC" fill-rule="evenodd" d="M72.3225 64.7046c-3.2089-4.803-10.965-8.4495-17.5616-10.3159-6.5967-1.8683-8.7127-6.0259-8.2445-7.9604.4681-1.9345 1.915-1.3332 3.3822-4.0933 1.2497-2.3519 2.0994-7.8464 2.0994-7.8464s3.008-1.0003 3.3435-5.5349c.3336-4.5364 0-6.2043-1.1373-6.7375-1.1372-.5333-1.6054-.4671-1.6054-.4671s.7428-6.4525.7483-7.8041c.0056-1.712.1604-3.3927-.3207-5.1359C51.292 2.54046 44.1037-.127713 35.7597.004684 27.4157.13892 27.2866 2.67286 25.5541 4.54113c-1.7326 1.86643-2.8883.39903-4.4292 3.26764-.9308 1.73403-.0331 9.93903-.0331 9.93903.2801 2.2709.5935 4.0013.5935 4.0013s-.4682-.0662-1.6054.4671c-1.1354.5332-1.4709 2.2011-1.1354 6.7375.3336 4.5346 3.3416 5.5349 3.3416 5.5349s.8497 5.4945 2.1012 7.8464c1.4654 2.7601 2.9141 2.1588 3.3823 4.0933.4681 1.9345-1.6497 6.0921-8.2464 7.9604-6.5966 1.8664-14.35269 5.5129-17.56164 10.3159-2.4256 3.6318-2.049594 9.757-1.721511 12.5263.097688.8201 13.184151 4.9134 37.211651 4.9134 24.0275 0 36.4947-4.0933 36.5923-4.9134.3281-2.7693.706-8.8945-1.7215-12.5263z" clip-rule="evenodd"/><ellipse cx="54.7469" cy="55.9606" fill="#fff" rx="12.5136" ry="12.4843"/><path fill="#103654" d="M54.7469 41.9158c-7.7598 0-14.0778 6.3032-14.0778 14.0448 0 7.7415 6.318 14.0448 14.0778 14.0448s14.0778-6.3033 14.0778-14.0448c0-7.7416-6.318-14.0448-14.0778-14.0448zm0 2.5536c6.3765 0 11.5182 5.1297 11.5182 11.4912 0 6.3615-5.1417 11.4912-11.5182 11.4912s-11.5182-5.1297-11.5182-11.4912c0-6.3615 5.1417-11.4912 11.5182-11.4912zm0 2.5536c-.7068 0-1.2798.5716-1.2798 1.2768v7.6608c0 .4722.2579.883.6399 1.1039l5.9058 3.4048c.612.3526 1.4063.1452 1.7597-.4655.3534-.6106.1321-1.3897-.4799-1.7423l-5.2659-3.0324v-6.9293c0-.7052-.573-1.2768-1.2798-1.2768z"/></svg>
