<svg xmlns="http://www.w3.org/2000/svg" width="50" height="63" fill="none" viewBox="0 0 50 63"><path fill="#92C9EC" fill-rule="evenodd" d="M46.3815 41.4631c-2.0515-3.0779-7.01-5.4145-11.2273-6.6105-4.2173-1.1972-5.57-3.8615-5.2707-5.1011.2993-1.2396 1.2243-.8543 2.1623-2.623.7989-1.5071 1.3421-5.028 1.3421-5.028s1.9231-.641 2.1375-3.5468c.2133-2.907 0-3.9757-.727-4.3175-.7271-.3417-1.0264-.2993-1.0264-.2993s.4749-4.13478.4785-5.00086c.0035-1.09704.1025-2.17405-.2051-3.29112C32.9366 1.62794 28.3411-.08184 23.0067.003001c-5.3344.08602-5.4169 1.709779-6.5245 2.906979-1.1077 1.19602-1.8465.2557-2.8316 2.09392-.595 1.11118-.0212 6.369-.0212 6.369.1791 1.4552.3794 2.564.3794 2.564s-.2993-.0424-1.0263.2993c-.7259.3418-.9403 1.4105-.7259 4.3175.2133 2.9058 2.1364 3.5468 2.1364 3.5468s.5432 3.5209 1.3433 5.028c.9368 1.7687 1.863 1.3834 2.1623 2.623.2993 1.2396-1.0547 3.9039-5.272 5.1011-4.21726 1.196-9.17574 3.5326-11.22724 6.6105C-.151338 43.7903.089044 47.7154.298789 49.49c.062453.5255 8.428701 3.1485 23.789611 3.1485 15.3609 0 23.3312-2.623 23.3937-3.1485.2097-1.7746.4513-5.6997-1.1006-8.0269z" clip-rule="evenodd"/><path fill="#103654" fill-rule="evenodd" d="M36.6129 26.8065l.76-.4549c1.1489-.6857 2.6371-.1437 3.0755 1.1195l.2899.8366c.2545.7341.892 1.2679 1.6579 1.3916l.8743.1403c1.3209.2132 2.1128 1.5848 1.6367 2.8339l-.3158.8283c-.2757.7247-.1319 1.5437.3759 2.1317l.5798.6693c.8755 1.011.5998 2.5711-.568 3.2227l-.7741.4313c-.6776.3783-1.0936 1.0982-1.0818 1.8748l.013.8849c.02 1.3374-1.1937 2.3555-2.5064 2.1034l-.8696-.1674c-.7635-.1461-1.5448.1391-2.0338.7412l-.5597.687c-.8437 1.0369-2.4286 1.0369-3.2723 0l-.5585-.687c-.4902-.6021-1.2714-.8873-2.0338-.7412l-.8697.1674c-1.3138.2521-2.5275-.766-2.5075-2.1034l.013-.8849c.0118-.7766-.403-1.4965-1.0817-1.8748l-.773-.4313c-1.1689-.6516-1.4435-2.2117-.5692-3.2227l.5798-.6693c.5078-.588.6528-1.407.3759-2.1317l-.3158-.8283c-.4761-1.2491.3158-2.6207 1.6367-2.8339l.8743-.1403c.7671-.1237 1.4034-.6575 1.658-1.3916l.2898-.8366c.4396-1.2632 1.9278-1.8052 3.0755-1.1195l.76.4549c.667.3983 1.4977.3983 2.1647 0z" clip-rule="evenodd"/><path fill="#103654" fill-rule="evenodd" d="M38.0271 46.744l-.6988.859c-1.0558 1.2962-3.0354 1.2962-4.09 0l-.6988-.859c-.3476-.4266-.8166-.7082-1.328-.8532v7.3235l4.2822-3.2853 4.3822 3.3854v-7.5332c-.7129.0531-1.3845.3936-1.8488.9628z" clip-rule="evenodd"/><circle cx="35.5" cy="36.3599" r="6.5" fill="#fff"/></svg>
