<svg width="625" height="345" viewBox="0 0 625 345" fill="none" xmlns="http://www.w3.org/2000/svg">
<g clip-path="url(#clip0)">
<path d="M45.1359 261.151C15.0786 234.531 -0.520392 203.771 -9.2614e-05 172.21C0.520207 140.649 17.2899 110.348 48.4578 84.9194L54.8515 87.5403C24.6041 112.219 8.34471 141.559 7.82441 172.28C7.30411 203.001 22.4728 232.831 51.6697 258.7L45.1359 261.151Z" fill="#A8CEEF"/>
<path d="M60.2747 92.8823L63.5766 77.2468L38.4521 83.3289L60.2747 92.8823Z" fill="#A8CEEF"/>
<path d="M165.475 320.851L168.657 316.74C254.026 339.018 353.514 333.996 428.297 303.625L432.829 307.327C355.795 338.608 253.356 343.789 165.475 320.851Z" fill="#A8CEEF"/>
<path d="M176.642 312.649L149.416 313.739L164.805 326.814L176.642 312.649Z" fill="#A8CEEF"/>
<path d="M529.675 177.442L524.382 174.381L536.839 167.198C557.911 155.024 557.851 135.187 536.599 122.923L541.852 119.922C565.986 133.846 566.106 156.444 542.132 170.279L529.675 177.442Z" fill="#A8CEEF"/>
<path d="M520.48 169.029L513.826 183.534L538.95 179.693L520.48 169.029Z" fill="#A8CEEF"/>
<path d="M454.762 170.169C430.558 156.164 430.438 133.537 454.482 119.662L466.258 112.859L471.812 116.07L460.035 122.863C439.023 134.987 439.133 154.784 460.275 166.978L454.762 170.169Z" fill="#A8CEEF"/>
<path d="M475.904 121.682L482.888 106.467L456.533 110.498L475.904 121.682Z" fill="#A8CEEF"/>
<path d="M378.948 277.277C369.143 256.269 379.489 233.791 405.964 218.526C422.373 209.073 443.255 203.071 466.269 201.35L467.449 206.352C446.317 207.962 427.166 213.354 412.087 222.117C387.803 236.122 378.318 256.799 387.313 276.046L378.948 277.277Z" fill="#A8CEEF"/>
<path d="M461.746 195.418L488.662 203.541L463.167 212.894L461.746 195.418Z" fill="#A8CEEF"/>
<path d="M491.163 322.322L490.312 317.32C512.595 316.13 533.587 310.448 549.407 301.315C570.419 289.191 580.424 272.415 576.842 255.299L585.457 254.729C589.34 273.375 578.453 291.641 555.56 304.856C538.31 314.829 515.457 321.022 491.163 322.322Z" fill="#A8CEEF"/>
<path d="M495.295 328.334L468.94 319.631L495.035 310.858L495.295 328.334Z" fill="#A8CEEF"/>
<path d="M119.849 319.231L39.5629 272.885C32.1886 268.623 33.1192 261.121 41.6441 256.199C50.169 251.277 63.1765 250.737 70.5607 254.999L150.847 301.335C158.221 305.596 157.291 313.109 148.766 318.031C140.241 322.952 127.233 323.492 119.849 319.231Z" fill="#A8CEEF"/>
<path d="M174.27 174.591C174.61 174.241 174.997 173.941 175.421 173.7L267.284 120.682C268.821 119.792 270.566 119.324 272.342 119.324C274.118 119.324 275.863 119.792 277.4 120.682L374.856 176.892H380.019V200.9C380.028 201.65 379.836 202.389 379.463 203.04C379.09 203.691 378.55 204.23 377.898 204.601L286.215 257.49C284.133 258.694 281.771 259.327 279.366 259.327C276.961 259.327 274.599 258.694 272.517 257.49L175.461 201.47C174.654 201.011 173.983 200.346 173.517 199.543C173.051 198.74 172.807 197.827 172.81 196.899V196.899V172.81L174.27 174.591Z" fill="#E2F1FC"/>
<path d="M175.421 168.268L267.284 115.25C268.822 114.362 270.566 113.895 272.342 113.895C274.117 113.895 275.862 114.362 277.4 115.25L377.898 173.21C378.544 173.582 379.081 174.118 379.454 174.763C379.827 175.408 380.024 176.141 380.024 176.886C380.024 177.632 379.827 178.364 379.454 179.01C379.081 179.655 378.544 180.191 377.898 180.563L286.215 233.481C284.133 234.685 281.771 235.319 279.366 235.319C276.961 235.319 274.599 234.685 272.517 233.481L175.461 177.462C174.653 176.998 173.981 176.331 173.512 175.526C173.043 174.722 172.795 173.808 172.791 172.877C172.787 171.945 173.027 171.029 173.489 170.221C173.951 169.412 174.617 168.739 175.421 168.268V168.268Z" fill="url(#paint0_linear)"/>
<path opacity="0.2" d="M175.421 197.389L272.477 253.408C274.559 254.612 276.921 255.246 279.326 255.246C281.731 255.246 284.093 254.612 286.175 253.408L377.858 200.51C378.509 200.138 379.049 199.598 379.422 198.948C379.795 198.297 379.987 197.558 379.979 196.809V198.629C379.988 199.381 379.796 200.121 379.423 200.773C379.05 201.425 378.51 201.967 377.858 202.34L286.175 255.239C284.093 256.441 281.73 257.074 279.326 257.074C276.921 257.074 274.559 256.441 272.477 255.239L175.421 199.219C174.613 198.759 173.942 198.092 173.476 197.287C173.01 196.482 172.766 195.568 172.77 194.638V192.807C172.766 193.737 173.01 194.651 173.476 195.456C173.942 196.261 174.613 196.928 175.421 197.389V197.389Z" fill="#208EBC"/>
<path opacity="0.2" d="M175.421 179.992L272.477 236.012C274.559 237.216 276.921 237.85 279.326 237.85C281.731 237.85 284.093 237.216 286.175 236.012L377.858 183.124C378.509 182.749 379.049 182.208 379.422 181.555C379.794 180.903 379.987 180.163 379.979 179.412V181.243C379.988 181.993 379.796 182.732 379.423 183.383C379.05 184.034 378.51 184.573 377.858 184.944L286.175 237.843C284.093 239.047 281.731 239.68 279.326 239.68C276.921 239.68 274.559 239.047 272.477 237.843L175.421 181.823C174.614 181.364 173.943 180.699 173.477 179.896C173.011 179.093 172.767 178.18 172.77 177.252V177.252V175.421C172.766 176.35 173.01 177.263 173.476 178.066C173.942 178.869 174.613 179.534 175.421 179.992V179.992Z" fill="#208EBC"/>
<path d="M174.27 146.111C174.615 145.767 175.002 145.468 175.421 145.22L267.284 92.202C268.821 91.3124 270.566 90.844 272.342 90.844C274.118 90.844 275.863 91.3124 277.4 92.202L374.856 148.412H380.019V172.42C380.027 173.171 379.834 173.911 379.462 174.563C379.089 175.215 378.549 175.757 377.898 176.131L286.215 229.02C284.133 230.224 281.771 230.857 279.366 230.857C276.961 230.857 274.599 230.224 272.517 229.02L175.461 173C174.653 172.542 173.982 171.877 173.516 171.074C173.05 170.27 172.806 169.357 172.81 168.429V168.429V144.34L174.27 146.111Z" fill="#E2F1FC"/>
<path d="M175.421 139.789L267.284 86.7702C268.822 85.8826 270.566 85.4153 272.342 85.4153C274.118 85.4153 275.862 85.8826 277.4 86.7702L377.898 144.79C378.544 145.162 379.081 145.698 379.454 146.343C379.828 146.989 380.024 147.721 380.024 148.467C380.024 149.212 379.828 149.945 379.454 150.59C379.081 151.235 378.544 151.771 377.898 152.143L286.215 205.031C284.133 206.235 281.771 206.869 279.366 206.869C276.961 206.869 274.599 206.235 272.517 205.031L175.461 149.012C174.646 148.551 173.967 147.882 173.494 147.075C173.02 146.267 172.769 145.348 172.765 144.412C172.761 143.476 173.004 142.555 173.471 141.743C173.937 140.931 174.61 140.257 175.421 139.789V139.789Z" fill="url(#paint1_linear)"/>
<path opacity="0.2" d="M175.421 168.909L272.477 224.928C274.559 226.132 276.921 226.766 279.326 226.766C281.731 226.766 284.093 226.132 286.175 224.928L377.898 172.06C378.55 171.688 379.09 171.149 379.463 170.498C379.836 169.848 380.028 169.109 380.019 168.359V170.189C380.028 170.939 379.836 171.678 379.463 172.329C379.09 172.98 378.55 173.519 377.898 173.891L286.215 226.789C284.133 227.991 281.77 228.624 279.366 228.624C276.961 228.624 274.599 227.991 272.517 226.789L175.461 170.769C174.653 170.309 173.982 169.642 173.516 168.837C173.05 168.032 172.806 167.118 172.81 166.188V164.367C172.808 165.287 173.049 166.19 173.507 166.988C173.966 167.785 174.626 168.447 175.421 168.909Z" fill="#208EBC"/>
<path opacity="0.2" d="M175.421 151.523L272.477 207.542C274.559 208.744 276.921 209.377 279.326 209.377C281.73 209.377 284.093 208.744 286.175 207.542L377.858 154.644C378.51 154.27 379.05 153.729 379.423 153.076C379.796 152.424 379.988 151.684 379.979 150.933V152.763C379.988 153.515 379.796 154.255 379.423 154.907C379.05 155.56 378.51 156.101 377.858 156.474L286.175 209.373C284.093 210.575 281.73 211.208 279.326 211.208C276.921 211.208 274.559 210.575 272.477 209.373L175.421 153.353C174.613 152.895 173.942 152.23 173.476 151.427C173.01 150.623 172.766 149.711 172.77 148.782V148.782V146.951C172.768 147.879 173.013 148.792 173.478 149.595C173.944 150.398 174.614 151.063 175.421 151.523V151.523Z" fill="#208EBC"/>
<path d="M174.27 117.641C174.61 117.291 174.997 116.991 175.421 116.751L267.284 63.7322C268.823 62.8474 270.567 62.3818 272.342 62.3818C274.117 62.3818 275.861 62.8474 277.4 63.7322L374.856 119.952H380.019V143.96C380.028 144.711 379.836 145.452 379.463 146.104C379.09 146.756 378.55 147.297 377.898 147.671L286.215 200.57C284.133 201.772 281.77 202.405 279.366 202.405C276.961 202.405 274.599 201.772 272.517 200.57L175.461 144.55C174.653 144.09 173.982 143.423 173.516 142.618C173.05 141.813 172.806 140.899 172.81 139.969V139.969V115.86L174.27 117.641Z" fill="#E2F1FC"/>
<path d="M175.421 111.309L267.284 58.2902C268.821 57.4006 270.566 56.9321 272.342 56.9321C274.118 56.9321 275.863 57.4006 277.4 58.2902L377.898 116.31C378.544 116.682 379.081 117.218 379.454 117.863C379.828 118.509 380.024 119.241 380.024 119.987C380.024 120.732 379.828 121.465 379.454 122.11C379.081 122.755 378.544 123.291 377.898 123.663L286.215 176.561C284.132 177.763 281.77 178.396 279.366 178.396C276.961 178.396 274.599 177.763 272.517 176.561L175.461 120.542C174.646 120.079 173.968 119.41 173.495 118.601C173.021 117.793 172.77 116.874 172.766 115.937C172.762 115 173.005 114.079 173.471 113.266C173.938 112.453 174.61 111.778 175.421 111.309V111.309Z" fill="url(#paint2_linear)"/>
<path opacity="0.2" d="M175.421 140.429L272.477 196.448C274.559 197.65 276.921 198.283 279.326 198.283C281.73 198.283 284.093 197.65 286.175 196.448L377.858 143.55C378.509 143.175 379.049 142.634 379.422 141.982C379.794 141.329 379.987 140.59 379.979 139.839V141.669C379.987 142.42 379.794 143.16 379.422 143.812C379.049 144.465 378.509 145.006 377.858 145.38L286.215 198.269C284.133 199.473 281.771 200.107 279.366 200.107C276.961 200.107 274.599 199.473 272.517 198.269L175.461 142.249C174.654 141.79 173.983 141.125 173.517 140.322C173.051 139.519 172.807 138.606 172.81 137.678V137.678V135.847C172.8 136.774 173.037 137.686 173.496 138.491C173.955 139.296 174.619 139.965 175.421 140.429Z" fill="#208EBC"/>
<path opacity="0.2" d="M175.421 123.043L272.477 179.062C274.559 180.264 276.921 180.897 279.326 180.897C281.73 180.897 284.093 180.264 286.175 179.062L377.858 126.164C378.51 125.792 379.05 125.253 379.423 124.602C379.796 123.952 379.988 123.213 379.979 122.463V124.283C379.988 125.035 379.796 125.775 379.423 126.427C379.05 127.08 378.51 127.621 377.858 127.994L286.175 180.893C284.093 182.095 281.73 182.728 279.326 182.728C276.921 182.728 274.559 182.095 272.477 180.893L175.421 124.873C174.613 124.413 173.942 123.746 173.476 122.941C173.01 122.136 172.766 121.222 172.77 120.292V120.292V118.461C172.766 119.391 173.01 120.305 173.476 121.11C173.942 121.915 174.613 122.582 175.421 123.043V123.043Z" fill="#208EBC"/>
<path d="M174.27 89.1609C174.61 88.8108 174.997 88.511 175.421 88.2706L267.284 35.2522C268.822 34.3645 270.566 33.8972 272.342 33.8972C274.118 33.8972 275.862 34.3645 277.4 35.2522L374.856 91.4617H380.019V115.47C380.027 116.22 379.835 116.958 379.462 117.609C379.089 118.26 378.549 118.799 377.898 119.171L286.215 172.06C284.133 173.264 281.771 173.898 279.366 173.898C276.961 173.898 274.599 173.264 272.517 172.06L175.461 116.04C174.653 115.58 173.982 114.913 173.516 114.108C173.05 113.303 172.806 112.389 172.81 111.459V111.459V87.3803L174.27 89.1609Z" fill="#E2F1FC"/>
<path d="M175.421 82.8387L267.284 29.8203C268.823 28.9356 270.567 28.47 272.342 28.47C274.117 28.47 275.861 28.9356 277.4 29.8203L377.898 87.8405C378.544 88.2123 379.081 88.748 379.454 89.3934C379.827 90.0388 380.024 90.7712 380.024 91.5168C380.024 92.2623 379.827 92.9947 379.454 93.6401C379.081 94.2856 378.544 94.8212 377.898 95.193L286.215 148.051C284.133 149.255 281.771 149.889 279.366 149.889C276.961 149.889 274.599 149.255 272.517 148.051L175.461 92.0319C174.653 91.5688 173.981 90.9014 173.512 90.0966C173.043 89.2919 172.795 88.3781 172.791 87.4469C172.787 86.5157 173.027 85.5997 173.489 84.791C173.951 83.9822 174.617 83.3089 175.421 82.8387V82.8387Z" fill="url(#paint3_linear)"/>
<path opacity="0.2" d="M175.421 111.959L272.477 167.978C274.559 169.18 276.921 169.813 279.326 169.813C281.73 169.813 284.092 169.18 286.175 167.978L377.898 115.04C378.55 114.666 379.09 114.125 379.463 113.473C379.836 112.82 380.028 112.08 380.019 111.329V113.159C380.028 113.911 379.836 114.651 379.463 115.303C379.09 115.956 378.55 116.497 377.898 116.871L286.215 169.769C284.132 170.971 281.77 171.604 279.366 171.604C276.961 171.604 274.599 170.971 272.517 169.769L175.461 113.75C174.653 113.289 173.982 112.622 173.516 111.817C173.05 111.012 172.806 110.098 172.809 109.168V109.168V107.337C172.795 108.27 173.029 109.19 173.488 110.002C173.947 110.815 174.614 111.49 175.421 111.959V111.959Z" fill="#208EBC"/>
<path opacity="0.2" d="M175.421 94.5628L272.477 150.582C274.559 151.786 276.921 152.42 279.326 152.42C281.731 152.42 284.093 151.786 286.175 150.582L377.858 97.6839C378.51 97.3125 379.05 96.7733 379.423 96.1224C379.796 95.4716 379.988 94.7327 379.979 93.9826V95.8133C379.988 96.5633 379.796 97.3022 379.423 97.9531C379.05 98.6039 378.51 99.1431 377.858 99.5146L286.175 152.413C284.093 153.615 281.73 154.248 279.326 154.248C276.921 154.248 274.559 153.615 272.477 152.413L175.421 96.3935C174.612 95.9337 173.94 95.267 173.474 94.4619C173.008 93.6567 172.765 92.7421 172.77 91.8119V91.8119V90.0312C172.774 90.953 173.021 91.8572 173.487 92.6528C173.953 93.4484 174.62 94.1072 175.421 94.5628V94.5628Z" fill="#208EBC"/>
<path d="M174.27 60.6811C174.612 60.334 174.999 60.0346 175.421 59.7908L267.284 6.77236C268.821 5.88275 270.566 5.41431 272.342 5.41431C274.118 5.41431 275.863 5.88275 277.4 6.77236L374.856 63.0219H380.019V87.0303C380.028 87.7804 379.836 88.5192 379.463 89.1701C379.09 89.821 378.55 90.3601 377.898 90.7316L286.215 143.63C284.133 144.834 281.771 145.468 279.366 145.468C276.961 145.468 274.599 144.834 272.517 143.63L175.461 87.6105C174.645 87.1559 173.965 86.4914 173.492 85.6859C173.018 84.8804 172.769 83.9631 172.77 83.0289V83.0289V58.9105L174.27 60.6811Z" fill="#E2F1FC"/>
<g opacity="0.2">
<g style="mix-blend-mode:multiply" opacity="0.2">
<path d="M175.421 66.0831L272.477 122.103C274.559 123.305 276.921 123.937 279.326 123.937C281.73 123.937 284.092 123.305 286.175 122.103L377.858 69.2041C378.509 68.8295 379.049 68.2882 379.421 67.636C379.794 66.9837 379.987 66.244 379.979 65.4929V67.3235C379.989 68.0691 379.802 68.804 379.436 69.454C379.071 70.104 378.54 70.6459 377.898 71.0248L286.215 123.913C284.133 125.117 281.771 125.751 279.366 125.751C276.961 125.751 274.599 125.117 272.517 123.913L175.461 67.8937C174.654 67.4348 173.983 66.7696 173.517 65.9664C173.051 65.1632 172.807 64.2506 172.81 63.3221V63.3221V61.5115C172.802 62.4362 173.039 63.3465 173.498 64.1496C173.957 64.9527 174.62 65.6198 175.421 66.0831Z" fill="#BBDCEE"/>
</g>
</g>
<path d="M175.421 54.359L267.284 1.34055C268.822 0.452904 270.566 -0.0144043 272.342 -0.0144043C274.117 -0.0144043 275.862 0.452904 277.4 1.34055L377.898 59.3207C378.544 59.6926 379.081 60.2282 379.454 60.8736C379.827 61.519 380.024 62.2514 380.024 62.997C380.024 63.7426 379.827 64.475 379.454 65.1204C379.081 65.7658 378.544 66.3014 377.898 66.6733L286.215 119.572C284.133 120.776 281.771 121.41 279.366 121.41C276.961 121.41 274.599 120.776 272.517 119.572L175.461 63.5522C174.653 63.089 173.981 62.4216 173.512 61.6169C173.043 60.8121 172.795 59.8983 172.791 58.9671C172.787 58.0359 173.027 57.12 173.489 56.3112C173.951 55.5024 174.617 54.8292 175.421 54.359V54.359Z" fill="#BBDCF1"/>
<path d="M278.1 115.7C275.838 115.703 273.616 115.11 271.656 113.98L183.756 63.2721C182.954 62.8096 182.288 62.144 181.824 61.3424C181.361 60.5407 181.117 59.6313 181.117 58.7055C181.117 57.7798 181.361 56.8703 181.824 56.0687C182.288 55.2671 182.954 54.6015 183.756 54.1389L266.924 6.12224C268.388 5.28151 270.048 4.83911 271.736 4.83911C273.425 4.83911 275.085 5.28151 276.549 6.12224L367.532 58.6005C368.186 58.9792 368.729 59.5234 369.107 60.1783C369.485 60.8332 369.683 61.5758 369.683 62.3318C369.683 63.0877 369.485 63.8304 369.107 64.4853C368.729 65.1402 368.186 65.6843 367.532 66.0631L284.484 113.95C282.547 115.084 280.345 115.688 278.1 115.7V115.7ZM184.226 54.9392C183.565 55.3214 183.017 55.8706 182.636 56.5317C182.254 57.1927 182.054 57.9424 182.054 58.7055C182.054 59.4686 182.254 60.2183 182.636 60.8794C183.017 61.5404 183.565 62.0896 184.226 62.4718L272.157 113.179C273.975 114.222 276.034 114.77 278.13 114.77C280.226 114.77 282.285 114.222 284.104 113.179L367.151 65.2928C367.664 64.9958 368.09 64.5691 368.387 64.0555C368.683 63.542 368.839 62.9596 368.839 62.3668C368.839 61.774 368.683 61.1916 368.387 60.6781C368.09 60.1645 367.664 59.7378 367.151 59.4408L276.079 7.00254C274.758 6.24337 273.26 5.84386 271.736 5.84386C270.212 5.84386 268.715 6.24337 267.394 7.00254L184.226 54.9392Z" fill="#70B0E0"/>
<path d="M173.27 221.487V224.808H172.91H172.659" fill="#A8CEEF"/>
<path d="M142.082 231.16L132.667 225.728L157.821 211.213L167.226 216.645C171.149 218.906 173.15 221.42 173.23 224.188C173.31 226.956 171.509 229.413 167.827 231.56C163.954 233.737 159.56 234.813 155.119 234.672C150.542 234.654 146.049 233.444 142.082 231.16ZM145.964 228.92C148.645 230.458 151.699 231.226 154.789 231.14C157.777 231.151 160.717 230.389 163.324 228.93C165.866 227.469 167.2 225.822 167.326 223.988C167.453 222.154 166.139 220.453 163.384 218.886L158.381 216.015L141.001 226.019L145.964 228.92Z" fill="#A8CEEF"/>
<path d="M182.355 254.418L177.352 251.507L180.354 247.646L168.747 240.944L162.063 242.664L157.061 239.743L192.151 230.97L197.694 234.161L182.355 254.418ZM182.905 244.685L190.34 235.132L173.8 239.423L182.905 244.685Z" fill="#A8CEEF"/>
<path d="M195.593 262.091L191.16 259.53L212.422 247.256L204.758 242.835L208.64 240.594L228.412 251.998L224.529 254.238L216.865 249.817L195.593 262.091Z" fill="#A8CEEF"/>
<path d="M229.782 281.798L224.779 278.887L227.781 275.026L216.175 268.323L209.491 270.034L204.488 267.123L239.578 258.35L245.121 261.541L229.782 281.798ZM230.333 272.065L237.767 262.511L221.227 266.803L230.333 272.065Z" fill="#A8CEEF"/>
<path d="M142.082 228.159L132.667 222.727L157.821 208.212L167.226 213.644C171.149 215.905 173.15 218.419 173.23 221.187C173.31 223.955 171.509 226.412 167.827 228.559C163.954 230.736 159.56 231.812 155.119 231.671C150.542 231.653 146.049 230.443 142.082 228.159ZM145.964 225.919C148.645 227.457 151.699 228.225 154.789 228.139C157.777 228.15 160.717 227.388 163.324 225.929C165.866 224.468 167.2 222.821 167.326 220.987C167.453 219.153 166.139 217.452 163.384 215.885L158.381 213.014L141.001 223.018L145.964 225.919Z" fill="#E2F1FC"/>
<path d="M182.355 251.417L177.352 248.506L180.354 244.645L168.747 237.943L162.063 239.663L157.061 236.742L192.151 227.969L197.694 231.16L182.355 251.417ZM182.905 241.684L190.34 232.131L173.8 236.422L182.905 241.684Z" fill="#E2F1FC"/>
<path d="M195.593 259.09L191.16 256.529L212.422 244.255L204.758 239.833L208.64 237.593L228.412 248.997L224.529 251.237L216.865 246.816L195.593 259.09Z" fill="#E2F1FC"/>
<path d="M229.782 278.797L224.779 275.886L227.781 272.025L216.175 265.322L209.491 267.033L204.488 264.122L239.578 255.349L245.121 258.54L229.782 278.797ZM230.333 269.064L237.767 259.51L221.227 263.802L230.333 269.064Z" fill="#E2F1FC"/>
<path d="M229.782 278.797V281.798L224.74 278.887V275.886" fill="#A8CEEF"/>
<path d="M209.411 267.033L205.068 267.533L204.358 267.123V264.122" fill="#A8CEEF"/>
<path d="M244.991 258.54V261.541L243.65 262.361L243.28 260.821" fill="#A8CEEF"/>
<path d="M228.412 248.967V251.968L225.31 252.288V250.757" fill="#A8CEEF"/>
<path d="M191.16 256.499V259.5L193.862 259.78L193.992 258.14" fill="#A8CEEF"/>
<path d="M204.758 242.805V239.803L208.11 241.734" fill="#A8CEEF"/>
<path d="M177.312 248.506V251.507L180.014 253.068L180.164 250.157" fill="#A8CEEF"/>
<path d="M197.564 231.16V234.161L196.093 236.122L195.202 234.311" fill="#A8CEEF"/>
<path d="M156.93 236.742V239.743L158.892 240.884L161.173 239.193" fill="#A8CEEF"/>
<path d="M132.646 222.728V225.729L135.758 227.529L136.329 224.848" fill="#A8CEEF"/>
<path d="M512.215 126.544L364.11 41.0143C356.736 36.7528 357.526 29.3202 365.891 24.4985C374.246 19.6769 387.123 19.2167 394.507 23.4982L542.593 108.988C549.977 113.249 549.176 120.682 540.822 125.504C532.467 130.345 519.589 130.806 512.215 126.544Z" fill="#A8CEEF"/>
<path d="M589.549 265.472L455.792 188.266C448.418 184.004 449.209 176.571 457.573 171.75C465.928 166.928 478.806 166.468 486.19 170.749L619.947 247.956C627.321 252.218 626.521 259.65 618.166 264.472C609.811 269.274 596.934 269.734 589.549 265.472Z" fill="#A8CEEF"/>
<path d="M441.604 342.119L361.318 295.773C353.934 291.511 354.734 284.079 363.099 279.257C371.454 274.435 384.331 273.975 391.716 278.257L471.992 324.593C479.376 328.854 478.576 336.287 470.221 341.109C461.866 345.88 448.989 346.35 441.604 342.119Z" fill="#A8CEEF"/>
<path d="M101.298 101.955L21.012 55.6093C13.6278 51.3478 14.4282 43.9152 22.7831 39.0935C31.1379 34.2718 44.0153 33.8117 51.3995 38.0932L131.686 84.4393C139.07 88.7008 138.27 96.1334 129.905 100.955C121.56 105.747 108.683 106.217 101.298 101.955Z" fill="#A8CEEF"/>
<path d="M119.899 319.321L39.6127 272.975C32.2385 268.713 33.039 261.281 41.3938 256.459C49.7486 251.637 62.626 251.167 70.0103 255.459L150.297 301.805C157.671 306.066 156.87 313.499 148.515 318.321C140.161 323.112 127.283 323.572 119.899 319.321Z" fill="#A8CEEF"/>
<path d="M512.155 123.363L364.07 37.8832C356.685 33.6217 357.486 26.1891 365.841 21.3574C374.206 16.5358 387.083 16.0756 394.457 20.3571L542.542 105.847C549.917 110.098 549.126 117.531 540.761 122.363C532.417 127.164 519.539 127.624 512.155 123.363Z" fill="#E2F1FC"/>
<path d="M385.502 36.1425L382 34.1418L388.754 30.2405L392.166 32.2412C392.786 32.6013 393.106 32.9714 393.166 33.3616C393.226 33.7517 392.956 34.0918 392.456 34.3619C392.036 34.5973 391.566 34.7309 391.085 34.7521C390.617 34.7861 390.146 34.7214 389.704 34.562C389.848 34.6524 389.962 34.7833 390.031 34.9381C390.101 35.093 390.123 35.2649 390.095 35.4323C390.048 35.6197 389.96 35.7943 389.837 35.9431C389.714 36.092 389.56 36.2115 389.384 36.2926C388.82 36.6083 388.18 36.764 387.533 36.7427C386.815 36.7253 386.114 36.5182 385.502 36.1425V36.1425ZM389.124 33.6517C389.426 33.8342 389.772 33.931 390.125 33.9318C390.431 33.9383 390.735 33.8659 391.005 33.7217C391.275 33.5616 391.395 33.3916 391.385 33.2015C391.375 33.0114 391.215 32.8214 390.915 32.6413L388.964 31.5209L387.213 32.5213L389.124 33.6517ZM386.222 35.3723C386.527 35.5518 386.87 35.6548 387.223 35.6724C387.572 35.7005 387.922 35.6202 388.224 35.4423C388.333 35.395 388.427 35.3187 388.496 35.2217C388.564 35.1247 388.605 35.0107 388.614 34.8921C388.614 34.682 388.434 34.482 388.094 34.2919L386.092 33.1315L384.221 34.2219L386.222 35.3723Z" fill="#456992"/>
<path d="M391.616 39.8138C390.615 39.2436 390.135 38.6734 390.125 38.0832C390.115 37.493 390.545 36.9628 391.395 36.4726L395.498 34.1018L396.718 34.8121L392.666 37.1529C392.116 37.473 391.846 37.8131 391.836 38.1532C391.826 38.4933 392.106 38.8535 392.676 39.1536C393.213 39.4765 393.83 39.6428 394.457 39.6337C395.075 39.6248 395.681 39.4597 396.218 39.1536L400.23 36.8628L401.451 37.573L397.369 39.9238C396.517 40.4228 395.544 40.6788 394.557 40.6641C393.52 40.6396 392.506 40.3467 391.616 39.8138V39.8138Z" fill="#456992"/>
<path d="M398.459 43.7653C397.272 43.0984 396.692 42.3482 396.718 41.5146L398.309 41.3745C398.319 41.7666 398.443 42.1473 398.668 42.4692C398.892 42.7912 399.206 43.0401 399.57 43.1851C399.967 43.4318 400.416 43.5825 400.881 43.6253C401.224 43.6674 401.572 43.6083 401.881 43.4552C401.936 43.4332 401.986 43.3995 402.027 43.3565C402.067 43.3136 402.098 43.2623 402.117 43.2062C402.136 43.1501 402.143 43.0906 402.137 43.0317C402.131 42.9728 402.112 42.9159 402.082 42.865C401.913 42.5651 401.693 42.2976 401.431 42.0747C401.121 41.7947 400.831 41.5045 400.551 41.2044C400.426 41.082 400.327 40.9356 400.26 40.774C400.193 40.6125 400.159 40.439 400.16 40.2641C400.16 39.934 400.411 39.6339 400.871 39.3738C401.516 39.0253 402.253 38.8822 402.982 38.9637C403.826 39.0127 404.646 39.2631 405.373 39.6939C406.434 40.3008 406.984 40.9677 407.024 41.6946L405.443 41.8047C405.443 41.2044 405.023 40.6643 404.213 40.1941C403.879 39.9973 403.507 39.8745 403.122 39.834C402.814 39.8044 402.504 39.8671 402.232 40.014C402.161 40.0462 402.103 40.101 402.066 40.1698C402.03 40.2386 402.018 40.3176 402.031 40.3942C402.089 40.5801 402.192 40.7487 402.332 40.8843C402.515 41.0842 402.709 41.2745 402.912 41.4545C403.132 41.6646 403.332 41.8747 403.522 42.0948C403.692 42.2963 403.837 42.5181 403.953 42.755C403.999 42.8623 404.024 42.9781 404.024 43.0951C404.024 43.2122 403.999 43.3279 403.953 43.4352C403.797 43.7101 403.564 43.9328 403.282 44.0754C402.615 44.4392 401.859 44.6057 401.101 44.5556C400.169 44.5101 399.263 44.2389 398.459 43.7653V43.7653Z" fill="#456992"/>
<path d="M403.603 46.5862L402.392 45.886L409.146 41.9846L410.366 42.6849L403.603 46.5862Z" fill="#456992"/>
<path d="M411.087 50.9077L409.916 50.2375L411.117 45.3558L406.294 48.1468L405.083 47.4465L411.837 43.5452L413.088 44.2654L411.937 49.0171L416.63 46.3061L417.851 47.0064L411.087 50.9077Z" fill="#456992"/>
<path d="M417.32 54.509L412.568 51.7681L419.322 47.8667L424.074 50.6077L423.074 51.2079L419.542 49.2072L417.781 50.2075L421.253 52.2082L420.202 52.8084L416.74 50.8077L414.869 51.8981L418.401 53.8988L417.32 54.509Z" fill="#456992"/>
<path d="M420.812 56.6696C419.618 56.0027 419.038 55.2525 419.071 54.4189L420.662 54.2788C420.672 54.6709 420.796 55.0516 421.021 55.3736C421.245 55.6955 421.559 55.9444 421.923 56.0894C422.323 56.3376 422.775 56.4884 423.244 56.5296C423.587 56.5729 423.935 56.5137 424.244 56.3595C424.299 56.3375 424.349 56.3038 424.39 56.2608C424.43 56.2179 424.461 56.1666 424.48 56.1105C424.499 56.0544 424.506 55.9949 424.5 55.936C424.494 55.8771 424.475 55.8202 424.445 55.7693C424.276 55.4694 424.056 55.2019 423.794 54.979C423.489 54.7041 423.199 54.4137 422.924 54.1087C422.797 53.9868 422.697 53.8407 422.628 53.6792C422.559 53.5177 422.524 53.344 422.523 53.1684C422.523 52.8383 422.774 52.5382 423.234 52.2781C423.879 51.9296 424.616 51.7865 425.345 51.868C426.189 51.9169 427.009 52.1674 427.736 52.5982C428.81 53.2051 429.361 53.872 429.387 54.5989L427.817 54.709C427.768 54.3558 427.627 54.0216 427.41 53.7392C427.192 53.4567 426.905 53.2359 426.576 53.0984C426.245 52.9032 425.877 52.7805 425.495 52.7383C425.175 52.6953 424.849 52.7548 424.565 52.9083C424.491 52.9373 424.429 52.9911 424.391 53.0605C424.353 53.1299 424.34 53.2105 424.354 53.2885C424.416 53.4726 424.518 53.6403 424.655 53.7786C424.825 53.9587 425.015 54.1488 425.235 54.3488C425.455 54.5489 425.655 54.769 425.845 54.9891C426.019 55.1881 426.164 55.4103 426.276 55.6493C426.322 55.7566 426.347 55.8723 426.347 55.9894C426.347 56.1065 426.322 56.2222 426.276 56.3295C426.123 56.6067 425.889 56.8302 425.605 56.9697C424.942 57.3335 424.188 57.4968 423.434 57.4399C422.51 57.4029 421.61 57.1384 420.812 56.6696V56.6696Z" fill="#456992"/>
<path d="M426.996 60.231C425.795 59.5408 425.215 58.7905 425.245 57.9802L426.836 57.8502C426.847 58.2406 426.973 58.6191 427.197 58.9391C427.421 59.259 427.734 59.5065 428.097 59.6508C428.497 59.8992 428.949 60.0531 429.417 60.101C429.761 60.1443 430.111 60.0815 430.418 59.9209C430.473 59.8993 430.523 59.8656 430.564 59.8224C430.604 59.7791 430.635 59.7274 430.653 59.6709C430.671 59.6144 430.677 59.5546 430.669 59.4957C430.661 59.4369 430.64 59.3805 430.608 59.3307C430.443 59.0286 430.222 58.7605 429.958 58.5404C429.658 58.2603 429.357 57.9702 429.087 57.6701C428.96 57.5485 428.86 57.4025 428.791 57.2409C428.722 57.0793 428.687 56.9054 428.687 56.7298C428.687 56.3997 428.937 56.1096 429.397 55.8395C430.048 55.4955 430.786 55.3528 431.519 55.4293C432.359 55.4829 433.174 55.733 433.9 56.1596C434.971 56.7798 435.521 57.46 435.561 58.1603L433.98 58.2703C433.98 57.6701 433.55 57.1399 432.739 56.6698C432.409 56.4716 432.041 56.3455 431.659 56.2996C431.337 56.2611 431.012 56.3241 430.728 56.4797C430.656 56.5068 430.596 56.5592 430.559 56.6273C430.522 56.6953 430.511 56.7744 430.528 56.8498C430.578 57.0391 430.682 57.2095 430.828 57.34C430.988 57.5201 431.178 57.7101 431.399 57.9202C431.62 58.1186 431.828 58.3325 432.019 58.5604C432.194 58.7564 432.336 58.9793 432.439 59.2206C432.488 59.3255 432.514 59.4399 432.514 59.5558C432.514 59.6716 432.488 59.786 432.439 59.8909C432.289 60.1701 432.055 60.3943 431.769 60.5311C431.105 60.893 430.352 61.0595 429.598 61.0113C428.68 60.964 427.788 60.6964 426.996 60.231V60.231Z" fill="#456992"/>
<path d="M436.471 65.703C435.471 65.1328 434.991 64.5626 434.981 63.9824C434.971 63.4022 435.401 62.852 436.261 62.3618L440.354 60.021L441.574 60.7312L437.522 63.022C436.982 63.3422 436.702 63.6823 436.692 64.0224C436.682 64.3625 436.962 64.7326 437.532 65.0227C438.069 65.3457 438.686 65.512 439.313 65.5029C439.933 65.5037 440.541 65.3379 441.074 65.0227L445.126 62.6819L446.347 63.3922L442.255 65.823C441.401 66.3178 440.43 66.5735 439.443 66.5633C438.394 66.541 437.37 66.2444 436.471 65.703V65.703Z" fill="#456992"/>
<path d="M447.077 71.6848L445.907 71.0246L447.107 66.1529L442.255 68.9139L441.034 68.2136L447.798 64.3123L449.049 65.0325L447.898 69.7842L452.591 67.0832L453.811 67.7835L447.077 71.6848Z" fill="#456992"/>
<path d="M451.13 74.0257L448.558 72.5351L455.312 68.6338L457.894 70.1243C458.964 70.7445 459.525 71.4348 459.575 72.185C459.625 72.9353 459.134 73.5955 458.134 74.1857C457.087 74.7687 455.899 75.0524 454.702 75.006C453.447 74.9924 452.216 74.6547 451.13 74.0257V74.0257ZM452.18 73.4255C452.91 73.845 453.741 74.0561 454.582 74.0357C455.389 74.0448 456.186 73.8449 456.893 73.4555C457.574 73.0553 457.894 72.6152 457.944 72.115C457.994 71.6148 457.594 71.1146 456.853 70.7245L455.482 69.9442L450.82 72.6352L452.18 73.4255Z" fill="#456992"/>
<path d="M460.685 79.5376L455.933 76.7966L462.696 72.8953L467.449 75.6362L466.449 76.2464L462.907 74.2457L461.156 75.2461L464.618 77.2468L463.617 77.847L460.155 75.8463L458.274 76.9267L461.816 78.9274L460.685 79.5376Z" fill="#456992"/>
<path d="M467.269 83.3589L465.868 82.5486L466.869 80.2078L465.658 79.5075L463.137 80.968L461.916 80.2578L468.68 76.3564L471.682 78.1171C472.362 78.5072 472.682 78.9373 472.742 79.4075C472.802 79.8777 472.462 80.2878 471.832 80.6479C471.273 80.9752 470.638 81.1511 469.991 81.1581C469.379 81.1787 468.769 81.0731 468.2 80.848L467.269 83.3589ZM468.35 79.8677C468.7 80.0699 469.096 80.1801 469.5 80.1878C469.888 80.2106 470.274 80.1203 470.611 79.9277C470.941 79.7376 471.091 79.5275 471.061 79.2875C471.023 79.1425 470.953 79.0079 470.856 78.8936C470.759 78.7793 470.638 78.6883 470.501 78.6272L468.84 77.6269L466.689 78.8673L468.35 79.8677Z" fill="#456992"/>
<path d="M470.721 85.4697C469.52 84.7794 468.94 84.0292 468.97 83.2189L470.561 83.0888C470.572 83.4792 470.698 83.8578 470.922 84.1777C471.146 84.4977 471.459 84.7451 471.822 84.8895C472.221 85.1395 472.673 85.2936 473.142 85.3396C473.487 85.383 473.836 85.3202 474.143 85.1596C474.198 85.1379 474.248 85.1043 474.289 85.0611C474.329 85.0178 474.36 84.9661 474.378 84.9096C474.396 84.8531 474.402 84.7932 474.394 84.7344C474.386 84.6755 474.365 84.6192 474.333 84.5694C474.168 84.2673 473.947 83.9992 473.683 83.7791C473.383 83.499 473.082 83.2089 472.812 82.9088C472.686 82.7872 472.585 82.6412 472.516 82.4796C472.447 82.318 472.412 82.1441 472.412 81.9685C472.412 81.6383 472.662 81.3482 473.122 81.0781C473.77 80.735 474.505 80.5922 475.234 80.668C476.077 80.7204 476.896 80.9706 477.625 81.3983C478.696 82.0185 479.246 82.6987 479.286 83.399L477.705 83.509C477.705 82.9088 477.275 82.3786 476.464 81.9084C476.134 81.7103 475.766 81.5842 475.384 81.5383C475.062 81.4998 474.737 81.5627 474.453 81.7184C474.381 81.7455 474.321 81.7979 474.284 81.8659C474.247 81.934 474.236 82.013 474.253 82.0885C474.304 82.2751 474.404 82.4445 474.543 82.5787C474.713 82.7587 474.904 82.9488 475.124 83.1589C475.345 83.3572 475.553 83.5712 475.744 83.7991C475.919 83.995 476.061 84.218 476.164 84.4593C476.213 84.5642 476.239 84.6786 476.239 84.7944C476.239 84.9103 476.213 85.0247 476.164 85.1296C476.015 85.4088 475.78 85.633 475.494 85.7698C474.83 86.1317 474.077 86.2982 473.323 86.2499C472.405 86.2027 471.513 85.9351 470.721 85.4697V85.4697Z" fill="#456992"/>
<path d="M477.515 89.251L476.294 88.5507L482.008 85.2496L479.917 84.0292L480.917 83.429L486.33 86.55L485.33 87.1602L483.278 85.9498L477.515 89.251Z" fill="#456992"/>
<path d="M486.88 94.663L485.5 93.8628L486.29 92.8624L483.108 91.0318L481.297 91.4919L479.917 90.6917L489.402 88.3608L490.913 89.2411L486.88 94.663ZM486.991 92.0221L488.992 89.4412L484.519 90.5816L486.991 92.0221Z" fill="#456992"/>
<path d="M493.654 98.5642L492.474 97.894L493.684 93.0323L488.862 95.8233L487.641 95.123L494.395 91.2217L495.645 91.9419L494.505 96.6936L499.198 93.9826L500.408 94.6829L493.654 98.5642Z" fill="#456992"/>
<path d="M497.707 100.905L495.125 99.4246L501.889 95.5232L504.471 97.0337C505.541 97.6539 506.102 98.3442 506.142 99.0944C506.182 99.8447 505.711 100.505 504.711 101.095C503.664 101.68 502.477 101.967 501.279 101.925C500.02 101.899 498.789 101.548 497.707 100.905V100.905ZM498.707 100.305C499.429 100.702 500.24 100.91 501.064 100.91C501.888 100.91 502.698 100.702 503.42 100.305C504.1 99.9147 504.421 99.4646 504.471 98.9744C504.521 98.4842 504.13 97.9741 503.38 97.5839L502.019 96.7936L497.347 99.4946L498.707 100.305Z" fill="#456992"/>
<path d="M503.73 104.386L502.51 103.686L509.273 99.7847L510.484 100.485L503.73 104.386Z" fill="#456992"/>
<path d="M511.214 108.708L510.034 108.028L511.244 103.156L506.422 105.937L505.201 105.237L511.965 101.335L513.206 102.055L512.065 106.807L516.758 104.106L517.968 104.806L511.214 108.708Z" fill="#456992"/>
<path d="M515.887 111.559C515.466 111.378 515.097 111.095 514.814 110.735C514.531 110.375 514.343 109.95 514.266 109.498C514.216 108.718 514.716 108.028 515.757 107.427C516.845 106.817 518.082 106.523 519.329 106.577C520.578 106.579 521.805 106.903 522.891 107.518C524.082 108.198 524.542 109.008 524.282 109.938L522.731 109.678C522.799 109.403 522.756 109.112 522.611 108.868C522.429 108.547 522.158 108.286 521.831 108.118C521.099 107.713 520.274 107.51 519.439 107.528C518.585 107.518 517.743 107.732 516.998 108.148C516.287 108.558 515.937 109.028 515.927 109.558C515.917 110.088 516.257 110.559 516.928 110.949C517.278 111.146 517.656 111.291 518.048 111.379C518.419 111.471 518.798 111.525 519.179 111.539L520.24 110.939L518.168 109.738L519.169 109.138L522.451 111.039L519.919 112.499C518.515 112.557 517.121 112.232 515.887 111.559Z" fill="#456992"/>
<path d="M589.499 262.301L455.743 185.064C448.358 180.803 449.159 173.37 457.514 168.549C465.878 163.717 478.756 163.257 486.13 167.548L619.887 244.755C627.271 249.017 626.471 256.449 618.116 261.271C609.751 266.093 596.874 266.563 589.499 262.301Z" fill="#E2F1FC"/>
<path d="M479.186 185.294L476.604 183.804L483.358 179.903L485.94 181.393C487.021 182.013 487.571 182.694 487.621 183.394C487.671 184.094 487.181 184.814 486.19 185.395C485.142 185.984 483.95 186.272 482.748 186.225C481.501 186.22 480.276 185.9 479.186 185.294V185.294ZM480.187 184.684C480.909 185.081 481.719 185.289 482.543 185.289C483.367 185.289 484.177 185.081 484.899 184.684C485.58 184.294 485.9 183.844 485.9 183.354C485.9 182.864 485.56 182.353 484.809 181.963L483.448 181.173L478.776 183.874L480.187 184.684Z" fill="#456992"/>
<path d="M490.222 191.667L488.841 190.866L489.632 189.866L486.45 188.025L484.639 188.486L483.258 187.685L492.744 185.354L494.265 186.235L490.222 191.667ZM490.332 189.026L492.333 186.445L487.861 187.585L490.332 189.026Z" fill="#456992"/>
<path d="M493.854 193.757L492.634 193.057L498.357 189.756L496.256 188.546L497.256 187.945L502.67 191.066L501.669 191.677L499.568 190.456L493.854 193.757Z" fill="#456992"/>
<path d="M503.22 199.169L501.839 198.369L502.63 197.369L499.448 195.528L497.637 195.988L496.256 195.188L505.741 192.857L507.262 193.737L503.22 199.169ZM503.33 196.528L505.331 193.948L500.829 195.068L503.33 196.528Z" fill="#456992"/>
<path d="M509.544 202.951C508.543 202.38 508.053 201.81 508.043 201.23C508.033 200.65 508.463 200.1 509.323 199.609L513.416 197.249L514.636 197.959L510.584 200.29C510.044 200.61 509.764 200.95 509.754 201.29C509.744 201.63 510.024 202 510.594 202.29C511.132 202.612 511.748 202.778 512.375 202.77C512.995 202.772 513.603 202.606 514.136 202.29L518.138 199.949L519.359 200.66L515.297 203.071C514.443 203.565 513.472 203.821 512.485 203.811C511.446 203.788 510.431 203.491 509.544 202.951Z" fill="#456992"/>
<path d="M520.14 208.933L518.969 208.252L520.17 203.381L515.347 206.162L514.126 205.461L520.89 201.56L522.141 202.28L520.99 207.072L525.683 204.371L526.904 205.071L520.14 208.933Z" fill="#456992"/>
<path d="M524.192 211.273L521.62 209.783L528.374 205.882L530.956 207.372C532.026 207.992 532.587 208.673 532.637 209.373C532.687 210.073 532.196 210.793 531.196 211.374C530.149 211.956 528.962 212.24 527.764 212.194C526.514 212.197 525.284 211.88 524.192 211.273V211.273ZM525.242 210.673C525.972 211.093 526.803 211.304 527.644 211.283C528.451 211.293 529.248 211.093 529.955 210.703C530.636 210.303 530.956 209.863 531.006 209.363C531.056 208.863 530.656 208.362 529.915 207.972L528.544 207.192L523.882 209.883L525.242 210.673Z" fill="#456992"/>
<path d="M533.747 216.785L528.995 214.074L535.759 210.173L540.511 212.914L539.511 213.524L535.969 211.524L534.218 212.524L537.68 214.525L536.679 215.135L533.217 213.134L531.306 214.144L534.848 216.145L533.747 216.785Z" fill="#456992"/>
<path d="M540.361 220.607L538.961 219.796L539.961 217.456L538.75 216.755L536.229 218.206L535.008 217.506L541.772 213.604L544.774 215.365C545.454 215.755 545.774 216.185 545.835 216.655C545.895 217.125 545.554 217.536 544.924 217.896C544.365 218.223 543.731 218.399 543.083 218.406C542.476 218.417 541.874 218.305 541.312 218.076L540.361 220.607ZM541.442 217.115C541.794 217.313 542.189 217.423 542.593 217.436C542.98 217.458 543.366 217.368 543.703 217.176C544.033 216.985 544.184 216.775 544.154 216.535C544.116 216.39 544.046 216.256 543.949 216.141C543.852 216.027 543.73 215.936 543.593 215.875L541.932 214.875L539.781 216.115L541.442 217.115Z" fill="#456992"/>
<path d="M543.783 222.717C542.582 222.027 542.002 221.277 542.032 220.467L543.623 220.337C543.634 220.727 543.76 221.106 543.984 221.426C544.208 221.746 544.521 221.993 544.884 222.137C545.283 222.387 545.735 222.541 546.205 222.587C546.548 222.625 546.896 222.562 547.205 222.407C547.26 222.386 547.31 222.352 547.351 222.309C547.392 222.266 547.422 222.214 547.44 222.157C547.459 222.101 547.464 222.041 547.456 221.982C547.448 221.923 547.428 221.867 547.395 221.817C547.23 221.515 547.009 221.247 546.745 221.027C546.445 220.747 546.144 220.457 545.874 220.157C545.748 220.035 545.647 219.889 545.578 219.727C545.509 219.566 545.474 219.392 545.474 219.216C545.474 218.886 545.724 218.596 546.185 218.326C546.832 217.983 547.567 217.84 548.296 217.916C549.139 217.968 549.958 218.218 550.687 218.646C551.758 219.256 552.308 219.947 552.348 220.647L550.767 220.757C550.767 220.157 550.337 219.626 549.526 219.156C549.196 218.958 548.828 218.832 548.446 218.786C548.126 218.749 547.802 218.808 547.515 218.956C547.442 218.985 547.382 219.04 547.345 219.109C547.308 219.179 547.298 219.259 547.315 219.336C547.366 219.523 547.466 219.692 547.605 219.826C547.775 220.007 547.966 220.197 548.186 220.407C548.407 220.605 548.615 220.819 548.806 221.047C548.981 221.243 549.123 221.466 549.226 221.707C549.275 221.812 549.301 221.926 549.301 222.042C549.301 222.158 549.275 222.272 549.226 222.377C549.077 222.657 548.842 222.881 548.556 223.018C547.892 223.379 547.139 223.546 546.385 223.498C545.467 223.451 544.575 223.183 543.783 222.717V222.717Z" fill="#456992"/>
<path d="M550.577 226.499L549.356 225.799L555.07 222.497L552.979 221.287L553.979 220.687L559.392 223.808L558.392 224.418L556.29 223.198L550.577 226.499Z" fill="#456992"/>
<path d="M559.943 231.911L558.562 231.11L559.352 230.11L556.17 228.269L554.359 228.729L552.979 227.929L562.464 225.598L563.975 226.479L559.943 231.911ZM560.053 229.27L562.054 226.689L557.581 227.829L560.053 229.27Z" fill="#456992"/>
<path d="M566.716 235.812L565.536 235.132L566.746 230.26L561.924 233.081L560.703 232.371L567.467 228.479L568.707 229.2L567.567 233.951L572.259 231.24L573.47 231.941L566.716 235.812Z" fill="#456992"/>
<path d="M570.769 238.153L568.187 236.662L574.951 232.761L577.533 234.252C578.603 234.872 579.164 235.562 579.204 236.312C579.244 237.062 578.773 237.723 577.773 238.313C576.719 238.884 575.527 239.15 574.331 239.083C573.083 239.088 571.855 238.767 570.769 238.153V238.153ZM571.769 237.553C572.491 237.949 573.302 238.157 574.126 238.157C574.95 238.157 575.76 237.949 576.482 237.553C577.162 237.163 577.483 236.712 577.483 236.222C577.483 235.732 577.142 235.222 576.392 234.832L575.031 234.041L570.359 236.732L571.769 237.553Z" fill="#456992"/>
<path d="M576.792 241.634L575.572 240.924L582.335 237.083L583.546 237.783L576.792 241.634Z" fill="#456992"/>
<path d="M584.277 245.956L583.106 245.275L584.307 240.404L579.484 243.185L578.263 242.484L585.027 238.583L586.278 239.303L585.127 244.085L589.82 241.374L591.041 242.084L584.277 245.956Z" fill="#456992"/>
<path d="M588.949 248.796C588.528 248.618 588.159 248.337 587.876 247.978C587.593 247.62 587.404 247.196 587.328 246.746C587.328 245.965 587.778 245.275 588.819 244.675C589.907 244.065 591.144 243.77 592.391 243.825C593.638 243.828 594.864 244.148 595.953 244.755C597.14 245.422 597.601 246.232 597.334 247.186L595.793 246.926C595.861 246.65 595.818 246.359 595.673 246.116C595.491 245.795 595.22 245.534 594.892 245.365C594.161 244.961 593.336 244.757 592.501 244.775C591.647 244.765 590.805 244.979 590.06 245.395C589.349 245.805 588.999 246.276 588.989 246.806C588.979 247.336 589.319 247.806 589.99 248.196C590.34 248.387 590.713 248.532 591.1 248.626C591.474 248.718 591.856 248.772 592.241 248.786L593.302 248.186L591.23 246.986L592.231 246.386L595.513 248.286L592.981 249.747C591.576 249.806 590.18 249.477 588.949 248.796V248.796Z" fill="#456992"/>
<path d="M119.849 316.11L39.5628 269.804C32.1786 265.542 33.019 258.09 41.3338 253.278C49.6986 248.456 62.5761 247.996 69.9603 252.278L150.237 298.614C157.621 302.875 156.82 310.308 148.466 315.14C140.081 319.941 127.223 320.401 119.849 316.11Z" fill="#E2F1FC"/>
<g clip-path="url(#clip1)">
<path d="M63.7867 270.814L59.0339 268.093L65.9279 264.092L70.6806 266.833L69.61 267.453L66.038 265.412L64.2469 266.413L67.7089 268.413L66.6883 269.094L63.2264 267.093L61.3152 268.163L64.8473 270.164L63.7867 270.814Z" fill="#456992"/>
<path d="M68.5494 273.565L67.0386 272.685L71.201 267.093L72.5818 267.893L69.0998 272.365L76.7842 270.364L78.165 271.164L68.5494 273.565Z" fill="#456992"/>
<path d="M78.275 279.177L76.8842 278.377L77.7047 277.316L74.5229 275.486L72.6918 275.956L71.301 275.156L80.9266 272.745L82.4374 273.625L78.275 279.177ZM78.4251 276.506L80.4263 273.885L75.9237 275.096L78.4251 276.506Z" fill="#456992"/>
<path d="M83.3079 282.098L79.0454 279.607L85.9394 275.606L87.1601 276.306L81.3167 279.697L84.3685 281.468L83.3079 282.098Z" fill="#456992"/>
<path d="M87.2902 284.519C86.2896 283.949 85.8093 283.378 85.8093 282.788C85.8093 282.198 86.2496 281.648 87.1201 281.148L91.3025 278.737L92.5232 279.447L88.3908 281.828C87.8305 282.148 87.5503 282.498 87.5303 282.828C87.5103 283.158 87.7905 283.538 88.3608 283.829C88.9053 284.152 89.5287 284.318 90.1618 284.309C90.7855 284.298 91.3956 284.125 91.9329 283.809L96.0552 281.488L97.2759 282.198L93.1135 284.599C92.2492 285.106 91.2643 285.372 90.2619 285.369C89.2129 285.358 88.1863 285.064 87.2902 284.519Z" fill="#456992"/>
<path d="M98.1164 290.631L96.7356 289.831L97.556 288.78L94.3742 286.94L92.5331 287.41L91.1523 286.61L100.768 284.209L102.289 285.079L98.1164 290.631ZM98.2765 287.96L100.278 285.349L95.745 286.52L98.2765 287.96Z" fill="#456992"/>
<path d="M101.749 292.722L100.538 292.022L106.361 288.66L104.26 287.45L105.331 286.83L110.744 289.961L109.683 290.571L107.582 289.361L101.749 292.722Z" fill="#456992"/>
<path d="M106.061 295.233L104.84 294.532L111.734 290.531L112.945 291.241L106.061 295.233Z" fill="#456992"/>
<path d="M114.236 298.914C112.993 298.945 111.765 298.637 110.684 298.024C109.683 297.433 109.133 296.743 109.143 295.973C109.153 295.203 109.673 294.522 110.704 293.922C111.797 293.335 113.019 293.027 114.261 293.027C115.502 293.027 116.724 293.335 117.818 293.922C118.818 294.522 119.359 295.203 119.359 295.973C119.359 296.743 118.828 297.433 117.798 297.974C116.716 298.599 115.486 298.924 114.236 298.914V298.914ZM111.754 297.403C112.476 297.809 113.299 298 114.126 297.954C114.976 297.943 115.809 297.715 116.547 297.293C117.267 296.873 117.658 296.413 117.698 295.893C117.738 295.373 117.427 294.892 116.697 294.532C115.976 294.123 115.153 293.929 114.326 293.972C113.475 293.99 112.643 294.221 111.904 294.642C111.617 294.768 111.363 294.959 111.163 295.201C110.963 295.442 110.823 295.727 110.754 296.033C110.744 296.553 111.064 297.003 111.754 297.403Z" fill="#456992"/>
<path d="M121.54 304.106L120.359 303.425L121.66 298.504L116.747 301.345L115.526 300.644L122.42 296.643L123.671 297.363L122.43 302.165L127.213 299.404L128.434 300.114L121.54 304.106Z" fill="#456992"/>
</g>
<path d="M101.248 98.7745L21.0122 52.4384C13.6379 48.1769 14.4284 40.7443 22.7932 35.9126C31.148 31.0909 44.0254 30.6308 51.4097 34.9123L131.646 81.2284C139.02 85.4899 138.22 92.9224 129.865 97.7541C121.51 102.576 108.633 103.036 101.248 98.7745Z" fill="#E2F1FC"/>
<path d="M42.0241 51.2779L39.4426 49.7873L46.1965 45.886L48.778 47.3765C49.8486 47.9967 50.4089 48.677 50.459 49.3772C50.509 50.0774 50.0187 50.7977 49.0181 51.3779C47.9711 51.9608 46.7838 52.2446 45.5862 52.1982C44.3394 52.2025 43.1126 51.8856 42.0241 51.2779ZM43.0247 50.6777C43.7498 51.0647 44.5591 51.2672 45.381 51.2672C46.203 51.2672 47.0123 51.0647 47.7374 50.6777C48.4178 50.2775 48.738 49.8374 48.788 49.3372C48.838 48.837 48.4478 48.3368 47.6974 47.9467L46.3366 47.1564L41.6639 49.8574L43.0247 50.6777Z" fill="#456992"/>
<path d="M51.6197 56.7898L46.8669 54.0188L53.6208 50.1174L58.3736 52.8584L57.373 53.4586L53.831 51.4579L52.0799 52.4582L55.5419 54.4589L54.5414 55.0692L51.0794 53.0685L49.1983 54.1488L52.7403 56.1495L51.6197 56.7898Z" fill="#456992"/>
<path d="M54.0811 58.2102L52.8604 57.51L59.6242 53.6086L62.626 55.3693C63.3264 55.7694 63.6266 56.2095 63.6266 56.6797C63.6266 57.1499 63.3264 57.55 62.726 57.9001C62.0805 58.2566 61.3521 58.436 60.6148 58.4203C59.8165 58.4256 59.0316 58.2147 58.3435 57.8101L56.5125 56.8098L54.0811 58.2102ZM59.3141 57.1199C59.6621 57.319 60.0539 57.4289 60.4547 57.44C60.8423 57.4628 61.2282 57.3725 61.5654 57.1799C61.8956 56.9898 62.0456 56.7797 62.0156 56.5397C61.9856 56.2996 61.8055 56.0795 61.4553 55.8794L59.7943 54.8791L57.6431 56.1195L59.3141 57.1199Z" fill="#456992"/>
<path d="M63.4565 63.6322L59.1841 61.1614L65.938 57.26L67.1587 57.9602L61.4454 61.2614L64.4471 63.022L63.4565 63.6322Z" fill="#456992"/>
<path d="M71.2111 67.1034C69.9722 67.1159 68.7515 66.8056 67.6691 66.2031C66.6351 65.6029 66.1148 64.936 66.1082 64.2024C66.1082 63.4322 66.6084 62.7619 67.619 62.2017C68.6896 61.5989 69.9026 61.2948 71.131 61.3214C72.3667 61.3089 73.5843 61.6192 74.6631 62.2217C75.697 62.822 76.2173 63.4888 76.224 64.2224C76.224 64.9927 75.7237 65.6629 74.7131 66.2231C73.6444 66.8215 72.4358 67.1253 71.2111 67.1034ZM68.7297 65.5929C69.445 65.9973 70.2601 66.1915 71.081 66.1531C71.9162 66.1443 72.7354 65.924 73.4624 65.5129C74.1728 65.1027 74.553 64.6426 74.583 64.1324C74.613 63.6222 74.2929 63.1321 73.5825 62.7719C72.8648 62.3641 72.0455 62.1697 71.2211 62.2117C70.3863 62.2232 69.5677 62.4432 68.8397 62.852C68.5535 62.9718 68.3015 63.1606 68.1059 63.4014C67.9104 63.6423 67.7775 63.9278 67.7191 64.2324C67.7091 64.7426 68.0393 65.1928 68.7297 65.5929Z" fill="#456992"/>
<path d="M75.6936 70.6946L74.4829 70.0244L77.2845 68.4038L78.5452 64.5625L79.936 65.3728L78.9355 68.1437L83.7282 67.5635L85.119 68.3738L78.4852 69.1041L75.6936 70.6946Z" fill="#456992"/>
<path d="M86.3497 76.8367L85.129 76.1365L90.1319 73.2455L83.0478 74.9061L82.5275 74.606L85.4191 70.4845L80.4163 73.3855L79.1956 72.6753L85.9595 68.7739L87.6704 69.7743L85.0489 73.4255L91.3926 71.945L93.1036 72.9454L86.3497 76.8367Z" fill="#456992"/>
<path d="M92.5733 80.438L87.8206 77.687L94.5845 73.7856L99.3272 76.5366L98.3266 77.1368L94.7946 75.1361L93.0436 76.1365L96.5056 78.1372L95.505 78.7374L92.043 76.7367L90.0518 77.787L93.5839 79.7877L92.5733 80.438Z" fill="#456992"/>
<path d="M99.8274 84.6194L98.6568 83.9492L99.8575 79.0274L95.0547 81.8584L93.844 81.1582L100.598 77.2568L101.849 77.9771L100.698 82.7287L105.371 80.0278L106.591 80.728L99.8274 84.6194Z" fill="#456992"/>
<path d="M104.18 87.1304L102.959 86.4301L108.673 83.129L106.571 81.9186L107.572 81.3184L113.065 84.4394L112.064 85.0497L109.963 83.8292L104.18 87.1304Z" fill="#456992"/>
<path d="M441.544 338.908L361.268 292.572C353.884 288.31 354.684 280.878 363.039 276.046C371.394 271.224 384.271 270.764 391.656 275.046L471.942 321.382C479.326 325.643 478.526 333.076 470.161 337.908C461.806 342.709 448.929 343.169 441.544 338.908Z" fill="#E2F1FC"/>
<path d="M393.276 298.994L392.066 298.284L397.069 295.393L389.935 297.103L389.414 296.813L392.306 292.692L387.303 295.583L386.082 294.883L392.836 290.981L394.557 291.982L391.986 295.633L398.329 294.162L400.05 295.163L393.276 298.994Z" fill="#456992"/>
<path d="M401.401 302.685C400.164 302.699 398.946 302.385 397.869 301.775C396.842 301.182 396.322 300.515 396.308 299.774C396.308 299.014 396.809 298.344 397.819 297.774C398.897 297.199 400.1 296.899 401.321 296.899C402.543 296.899 403.745 297.199 404.823 297.774C405.824 298.374 406.374 299.054 406.374 299.774C406.374 300.495 405.884 301.215 404.873 301.775C403.817 302.38 402.619 302.694 401.401 302.685ZM398.92 301.175C399.641 301.575 400.458 301.768 401.281 301.735C402.117 301.721 402.936 301.497 403.663 301.085C404.373 300.675 404.743 300.225 404.783 299.714C404.823 299.204 404.493 298.714 403.783 298.354C403.067 297.948 402.253 297.751 401.431 297.784C400.592 297.796 399.77 298.02 399.04 298.434C398.755 298.555 398.504 298.744 398.308 298.985C398.113 299.226 397.979 299.51 397.919 299.814C397.899 300.315 398.229 300.775 398.92 301.175Z" fill="#456992"/>
<path d="M405.293 305.926L402.712 304.436L409.466 300.534L412.047 302.025C413.118 302.645 413.678 303.325 413.728 304.076C413.778 304.826 413.288 305.496 412.287 306.076C411.243 306.667 410.054 306.955 408.855 306.907C407.604 306.888 406.378 306.551 405.293 305.926V305.926ZM406.294 305.316C407.023 305.738 407.853 305.952 408.695 305.936C409.505 305.948 410.302 305.744 411.007 305.346C411.687 304.956 412.007 304.516 412.057 304.016C412.107 303.515 411.717 303.015 410.967 302.625L409.606 301.835L404.933 304.536L406.294 305.316Z" fill="#456992"/>
<path d="M414.849 311.438L410.096 308.697L416.85 304.796L421.603 307.537L420.602 308.137L417.06 306.136L415.239 307.107L418.701 309.107L417.701 309.718L414.239 307.717L412.358 308.797L415.9 310.798L414.849 311.438Z" fill="#456992"/>
<path d="M420.362 314.63L416.09 312.159L422.853 308.257L424.064 308.958L418.351 312.259L421.413 314.019L420.362 314.63Z" fill="#456992"/>
<path d="M422.684 315.96L421.463 315.26L428.227 311.358L429.447 312.059L422.684 315.96Z" fill="#456992"/>
<path d="M430.168 320.292L428.997 319.611L430.198 314.74L425.375 317.521L424.164 316.82L430.918 312.919L432.169 313.639L431.018 318.391L435.711 315.68L436.932 316.39L430.168 320.292Z" fill="#456992"/>
<path d="M434.84 323.113C434.427 322.939 434.063 322.665 433.782 322.316C433.501 321.967 433.311 321.553 433.23 321.112C433.18 320.332 433.67 319.641 434.71 319.041C435.802 318.429 437.043 318.135 438.292 318.191C439.536 318.194 440.759 318.514 441.844 319.121C443.035 319.811 443.495 320.622 443.235 321.552L441.684 321.292C441.751 321.014 441.712 320.722 441.574 320.472C441.387 320.158 441.117 319.902 440.794 319.731C440.061 319.323 439.231 319.12 438.393 319.141C437.541 319.127 436.702 319.341 435.961 319.761C435.254 320.168 434.894 320.638 434.88 321.172C434.867 321.705 435.201 322.166 435.881 322.552C436.227 322.754 436.602 322.902 436.992 322.992C437.365 323.086 437.748 323.139 438.132 323.153L439.183 322.542L437.112 321.352L438.112 320.752L441.404 322.642L438.933 324.113C437.502 324.168 436.085 323.821 434.84 323.113Z" fill="#456992"/>
<path d="M175.421 83.479L272.477 139.499C274.559 140.7 276.921 141.333 279.326 141.333C281.73 141.333 284.093 140.7 286.175 139.499L377.858 86.6001C378.51 86.2287 379.05 85.6895 379.423 85.0387C379.796 84.3878 379.988 83.6489 379.979 82.8989V84.7195C379.988 85.4709 379.796 86.211 379.423 86.8634C379.05 87.5158 378.51 88.0569 377.858 88.4308L286.175 141.329C284.093 142.531 281.73 143.164 279.326 143.164C276.921 143.164 274.559 142.531 272.477 141.329L175.421 85.3097C174.613 84.8491 173.942 84.1823 173.476 83.3773C173.01 82.5723 172.766 81.6581 172.77 80.7281V80.7281V78.8975C172.766 79.8275 173.01 80.7417 173.476 81.5467C173.942 82.3516 174.613 83.0185 175.421 83.479V83.479Z" fill="#BBDCEE"/>
</g>
<defs>
<linearGradient id="paint0_linear" x1="380.019" y1="174.611" x2="172.759" y2="174.611" gradientUnits="userSpaceOnUse">
<stop stop-color="#D1E9FA"/>
<stop offset="1" stop-color="#D1E9FA"/>
</linearGradient>
<linearGradient id="paint1_linear" x1="-950936" y1="17827.4" x2="-908004" y2="17827.4" gradientUnits="userSpaceOnUse">
<stop stop-color="#98C3EA"/>
<stop offset="1" stop-color="#D1E9FA"/>
</linearGradient>
<linearGradient id="paint2_linear" x1="-950929" y1="14343.5" x2="-907997" y2="14343.5" gradientUnits="userSpaceOnUse">
<stop stop-color="#98C3EA"/>
<stop offset="1" stop-color="#D1E9FA"/>
</linearGradient>
<linearGradient id="paint3_linear" x1="-950816" y1="10853" x2="-907889" y2="10853" gradientUnits="userSpaceOnUse">
<stop stop-color="#98C3EA"/>
<stop offset="1" stop-color="#D1E9FA"/>
</linearGradient>
<clipPath id="clip0">
<rect width="625" height="345" fill="white"/>
</clipPath>
<clipPath id="clip1">
<rect width="69.4" height="40.054" fill="white" transform="translate(59.0339 264.092)"/>
</clipPath>
</defs>
</svg>
