<?xml version="1.0" encoding="UTF-8"?> <svg xmlns="http://www.w3.org/2000/svg" xmlns:xlink="http://www.w3.org/1999/xlink" width="74px" height="74px" viewBox="0 0 74 74"><!-- Generator: Sketch 60 (88103) - https://sketch.com --><title>Model-Building</title><desc>Created with Sketch.</desc><g id="Model-Building" stroke="none" stroke-width="1" fill="none" fill-rule="evenodd"><g id="model" transform="translate(9.000000, 9.000000)" fill="#2E86BD" fill-rule="nonzero"><path d="M40.6451613,14.4516129 C42.1389239,14.4516129 43.3548387,13.2356981 43.3548387,11.7419355 C43.3548387,10.2481729 42.1389239,9.03225806 40.6451613,9.03225806 C39.1513987,9.03225806 37.9354839,10.2481729 37.9354839,11.7419355 C37.9354839,13.2356981 39.1513987,14.4516129 40.6451613,14.4516129 Z M40.6451613,10.8387097 C41.1426411,10.8387097 41.5483871,11.2444556 41.5483871,11.7419355 C41.5483871,12.2394153 41.1426411,12.6451613 40.6451613,12.6451613 C40.1476815,12.6451613 39.7419355,12.2394153 39.7419355,11.7419355 C39.7419355,11.2444556 40.1476815,10.8387097 40.6451613,10.8387097 Z" id="Shape"></path><path d="M48.6612903,19.8709677 L46.3652973,14.4180948 C46.7472278,13.6043977 46.9677419,12.6994078 46.9677419,11.7419355 C46.9677419,9.22631048 45.4872102,7.0551285 43.3548387,6.03811747 L43.3548387,1.80645161 C43.3548387,0.810168823 42.5446699,0 41.5483871,0 L39.7419355,0 C38.7456527,0 37.9354839,0.810168823 37.9354839,1.80645161 L37.9354839,6.03811747 C35.8031124,7.0551285 34.3225806,9.22631048 34.3225806,11.7419355 C34.3225806,12.6994078 34.5430948,13.6043977 34.9250253,14.4180948 L32.6290323,19.8709677 L28,19.8709677 L28,0 L17.1612903,0 L17.1612903,19.8709677 L15.3548387,19.8709677 L15.3548387,7.85515376 L10.8387097,1.08096021 L6.32258065,7.85515376 L6.32258065,19.8709677 L0,19.8709677 L0,48.2449597 L7.75504032,56 L56,56 L56,19.8709677 L48.6612903,19.8709677 Z M50.4814138,28.8507434 C50.547127,29.0059854 50.5806452,29.171371 50.5806452,29.3411668 L50.5806452,29.4408392 C50.5806452,30.1407511 50.0117188,30.7096774 49.312689,30.7096774 C48.8010962,30.7096774 48.3424269,30.405368 48.1435231,29.9347909 L42.9592364,17.6199597 C43.7866054,17.2931578 44.5297379,16.8000882 45.1449723,16.1769153 L50.4814138,28.8507434 Z M50.5806452,37.9354839 L50.5806452,46.9677419 L39.7419355,46.9677419 L39.7419355,37.9354839 L50.5806452,37.9354839 Z M40.6451613,18.0645161 C40.8242188,18.0645161 41.000189,18.0526083 41.1752772,18.0376134 L43.2291457,22.9158266 C41.5973413,23.6426411 39.6929813,23.6426411 38.0611769,22.9158266 L40.1150454,18.0376134 C40.2901336,18.0526083 40.4661038,18.0645161 40.6451613,18.0645161 L40.6451613,18.0645161 Z M39.7419355,1.80645161 L41.5483871,1.80645161 L41.5483871,5.49168347 C41.2520161,5.44934476 40.9521169,5.41935484 40.6451613,5.41935484 C40.3382056,5.41935484 40.0383065,5.44934476 39.7419355,5.49168347 L39.7419355,1.80645161 Z M40.6451613,7.22580645 C43.1352067,7.22580645 45.1612903,9.25189006 45.1612903,11.7419355 C45.1612903,14.2319809 43.1352067,16.2580645 40.6451613,16.2580645 C38.1551159,16.2580645 36.1290323,14.2319809 36.1290323,11.7419355 C36.1290323,9.25189006 38.1551159,7.22580645 40.6451613,7.22580645 Z M38.3310862,17.6199597 L33.1454763,29.9347909 C32.9478957,30.405368 32.4892263,30.7096774 31.9776336,30.7096774 C31.2786038,30.7096774 30.7096774,30.1407511 30.7096774,29.4417212 L30.7096774,29.3420489 C30.7096774,29.172253 30.7431956,29.0073085 30.8089087,28.8507434 L36.1453503,16.1777973 C36.7597027,16.8000882 37.5037172,17.2931578 38.3310862,17.6199597 L38.3310862,17.6199597 Z M5.41935484,36.1290323 L13.5483871,36.1290323 L13.5483871,41.5483871 L18.0645161,41.5483871 L18.0645161,43.3548387 L5.41935484,43.3548387 L5.41935484,36.1290323 Z M15.3548387,39.7419355 L15.3548387,34.3225806 L5.41935484,34.3225806 L5.41935484,32.516129 L10.8387097,32.516129 L10.8387097,31.6129032 C10.8387097,30.1191406 12.0546245,28.9032258 13.5483871,28.9032258 L14.4516129,28.9032258 L14.4516129,25.2903226 L16.2580645,25.2903226 L16.2580645,33.4193548 L27.0967742,33.4193548 L27.0967742,25.2903226 L30.3475933,25.2903226 L29.1444683,28.1481855 C28.984375,28.5274698 28.9032258,28.9283644 28.9032258,29.3411668 L28.9032258,29.4408392 C28.9032258,30.6827747 29.6476815,31.7491809 30.7096774,32.234312 L30.7096774,34.8249118 C30.1760333,34.5139868 29.5643271,34.3225806 28.9032258,34.3225806 C26.9106602,34.3225806 25.2903226,35.9429183 25.2903226,37.9354839 C25.2903226,39.9280495 26.9106602,41.5483871 28.9032258,41.5483871 C30.8957914,41.5483871 32.516129,39.9280495 32.516129,37.9354839 L32.516129,32.4636466 C33.2253024,32.3383946 33.8630293,31.9723413 34.3225806,31.4285535 L34.3225806,43.3548387 L19.8709677,43.3548387 L19.8709677,39.7419355 L15.3548387,39.7419355 Z M5.41935484,30.7096774 L5.41935484,25.2903226 L12.6451613,25.2903226 L12.6451613,27.1880671 C10.8784022,27.5475051 9.48298897,28.9429183 9.12355094,30.7096774 L5.41935484,30.7096774 Z M18.0645161,25.2903226 L25.2903226,25.2903226 L25.2903226,31.6129032 L18.0645161,31.6129032 L18.0645161,25.2903226 Z M30.7096774,37.9354839 C30.7096774,38.9317667 29.8995086,39.7419355 28.9032258,39.7419355 C27.906943,39.7419355 27.0967742,38.9317667 27.0967742,37.9354839 C27.0967742,36.9392011 27.906943,36.1290323 28.9032258,36.1290323 C29.8995086,36.1290323 30.7096774,36.9392011 30.7096774,37.9354839 Z M18.9677419,1.80645161 L26.1935484,1.80645161 L26.1935484,3.61290323 L22.5806452,3.61290323 L22.5806452,5.41935484 L26.1935484,5.41935484 L26.1935484,7.22580645 L24.3870968,7.22580645 L24.3870968,9.03225806 L26.1935484,9.03225806 L26.1935484,10.8387097 L22.5806452,10.8387097 L22.5806452,12.6451613 L26.1935484,12.6451613 L26.1935484,14.4516129 L24.3870968,14.4516129 L24.3870968,16.2580645 L26.1935484,16.2580645 L26.1935484,19.8709677 L18.9677419,19.8709677 L18.9677419,1.80645161 Z M11.7419355,19.8709677 L11.7419355,9.03225806 L13.5483871,9.03225806 L13.5483871,19.8709677 L11.7419355,19.8709677 Z M12.764239,7.22580645 L8.9140625,7.22580645 L10.8387097,4.33839463 L12.764239,7.22580645 Z M8.12903226,9.03225806 L9.93548387,9.03225806 L9.93548387,19.8709677 L8.12903226,19.8709677 L8.12903226,9.03225806 Z M7.22580645,52.9163306 L3.08366935,48.7741935 L7.22580645,48.7741935 L7.22580645,52.9163306 Z M54.1935484,54.1935484 L9.03225806,54.1935484 L9.03225806,46.9677419 L1.80645161,46.9677419 L1.80645161,21.6774194 L31.8686996,21.6774194 L31.1079259,23.483871 L3.61290323,23.483871 L3.61290323,45.1612903 L36.1290323,45.1612903 L36.1290323,27.5042843 L37.358178,24.5851184 C38.3932712,25.0455519 39.5117188,25.2903226 40.6451613,25.2903226 C41.7786038,25.2903226 42.8970514,25.0455519 43.9321446,24.5851184 L46.4790827,30.6347027 C46.889239,31.608493 47.7589465,32.2841481 48.7741935,32.4636466 L48.7741935,36.1290323 L37.9354839,36.1290323 L37.9354839,48.7741935 L52.3870968,48.7741935 L52.3870968,36.1290323 L50.5806452,36.1290323 L50.5806452,32.234312 C51.6426411,31.7491809 52.3870968,30.6827747 52.3870968,29.4408392 L52.3870968,29.3411668 C52.3870968,28.9283644 52.3059476,28.5274698 52.1458543,28.1481855 L49.421623,21.6774194 L54.1935484,21.6774194 L54.1935484,54.1935484 Z" id="Shape"></path><path d="M10.8387097,52.3870968 L30.7096774,52.3870968 L30.7096774,46.9677419 L10.8387097,46.9677419 L10.8387097,52.3870968 Z M21.6774194,50.5806452 L19.8709677,50.5806452 L19.8709677,48.7741935 L21.6774194,48.7741935 L21.6774194,50.5806452 Z M23.483871,48.7741935 L25.2903226,48.7741935 L25.2903226,50.5806452 L23.483871,50.5806452 L23.483871,48.7741935 Z M18.0645161,50.5806452 L16.2580645,50.5806452 L16.2580645,48.7741935 L18.0645161,48.7741935 L18.0645161,50.5806452 Z M28.9032258,50.5806452 L27.0967742,50.5806452 L27.0967742,48.7741935 L28.9032258,48.7741935 L28.9032258,50.5806452 Z M12.6451613,48.7741935 L14.4516129,48.7741935 L14.4516129,50.5806452 L12.6451613,50.5806452 L12.6451613,48.7741935 Z" id="Shape"></path><polygon id="Path" points="32.516129 50.5806452 52.3870968 50.5806452 52.3870968 52.3870968 32.516129 52.3870968"></polygon></g></g></svg> 