<?xml version="1.0" encoding="UTF-8"?> <svg xmlns="http://www.w3.org/2000/svg" xmlns:xlink="http://www.w3.org/1999/xlink" width="74px" height="74px" viewBox="0 0 74 74"><!-- Generator: Sketch 60 (88103) - https://sketch.com --><title>Preparation-of-Data</title><desc>Created with Sketch.</desc><g id="Preparation-of-Data" stroke="none" stroke-width="1" fill="none" fill-rule="evenodd"><g id="document" transform="translate(8.000000, 10.000000)" fill="#2E86BD" fill-rule="nonzero"><path d="M58,46.8326613 L58,0.0584677419 L0,0.0584677419 L0,46.8326613 L13.6449093,46.8326613 L11.4925655,48.985005 C11.1266854,48.8091451 10.7224357,48.703629 10.2903226,48.703629 C8.74321129,48.703629 7.48387097,49.9629694 7.48387097,51.5100806 C7.48387097,53.0571919 8.74321129,54.3165323 10.2903226,54.3165323 C11.8374339,54.3165323 13.0967742,53.0571919 13.0967742,51.5100806 C13.0967742,51.0779675 12.9912582,50.6737178 12.8153982,50.3078377 L21.0616337,42.0616022 L19.738801,40.7387696 L15.515877,44.9616935 L1.87096774,44.9616935 L1.87096774,9.41330645 L56.1290323,9.41330645 L56.1290323,44.9616935 L42.484123,44.9616935 L38.2602854,40.7378559 L36.9374527,42.0606886 L45.1836883,50.3069242 C45.0087418,50.6737178 44.9032258,51.0779675 44.9032258,51.5100806 C44.9032258,53.0571919 46.1625661,54.3165323 47.7096774,54.3165323 C49.2567887,54.3165323 50.516129,53.0571919 50.516129,51.5100806 C50.516129,49.9629694 49.2567887,48.703629 47.7096774,48.703629 C47.2775643,48.703629 46.8733146,48.8091451 46.5074345,48.985005 L44.3550907,46.8326613 L58,46.8326613 Z M10.2903226,52.4455645 C9.7750756,52.4455645 9.35483871,52.0262411 9.35483871,51.5100806 C9.35483871,50.9939202 9.7750756,50.5745968 10.2903226,50.5745968 C10.8055696,50.5745968 11.2258065,50.9939202 11.2258065,51.5100806 C11.2258065,52.0262411 10.8055696,52.4455645 10.2903226,52.4455645 Z M1.87096774,7.54233871 L1.87096774,1.92943548 L56.1290323,1.92943548 L56.1290323,7.54233871 L1.87096774,7.54233871 Z M48.6451613,51.5100806 C48.6451613,52.0262411 48.2249244,52.4455645 47.7096774,52.4455645 C47.1944304,52.4455645 46.7741935,52.0262411 46.7741935,51.5100806 C46.7741935,50.9939202 47.1944304,50.5745968 47.7096774,50.5745968 C48.2249244,50.5745968 48.6451613,50.9939202 48.6451613,51.5100806 Z" id="Shape"></path><polygon id="Path" points="3.74193548 3.80040323 5.61290323 3.80040323 5.61290323 5.67137097 3.74193548 5.67137097"></polygon><polygon id="Path" points="7.48387097 3.80040323 9.35483871 3.80040323 9.35483871 5.67137097 7.48387097 5.67137097"></polygon><polygon id="Path" points="11.2258065 3.80040323 13.0967742 3.80040323 13.0967742 5.67137097 11.2258065 5.67137097"></polygon><path d="M36.992723,36.1111391 L39.2903226,35.3460339 L39.2903226,30.2556861 L36.992723,29.4905808 L38.0762034,27.3249905 L34.4763262,23.7251134 L32.3107359,24.8085938 L31.5456306,22.5100806 L26.4552829,22.5100806 L25.6901776,24.8076803 L23.5245873,23.7241998 L19.9247102,27.324077 L21.0081905,29.4896673 L18.7096774,30.2547726 L18.7096774,35.3451204 L21.007277,36.1102256 L19.9237966,38.2758159 L23.5236738,41.875693 L25.6883506,40.7931262 L26.4543694,43.0907258 L31.5447171,43.0907258 L32.3107359,40.7940398 L34.4754127,41.8766067 L38.0752898,38.2767294 L36.992723,36.1111391 Z M34.1067918,39.6004757 L32.0841734,38.5891664 L31.6790102,38.7705079 C31.5620747,38.8230374 31.4442257,38.8687153 31.3245495,38.9157636 L30.9120778,39.0738093 L30.1963048,41.2197581 L27.8027817,41.2197581 L27.0870086,39.0738093 L26.6745369,38.9157636 C26.5548608,38.8687153 26.4356413,38.8221239 26.3196195,38.7705079 L25.9149131,38.5891664 L23.8922945,39.6004757 L22.1999275,37.9081087 L23.2112368,35.8854901 L23.0298954,35.4807838 C22.9782793,35.3656754 22.9316879,35.2487399 22.8864667,35.1299773 L22.7293347,34.7133947 L20.5806452,33.9967081 L20.5806452,31.6031849 L22.7302482,30.8864982 L22.8873802,30.4699155 C22.9326014,30.351153 22.9791929,30.2342175 23.030809,30.1191091 L23.2121503,29.7144027 L22.2008411,27.6917843 L23.8932082,25.9994172 L25.9158266,27.0107264 L26.3209898,26.8293851 C26.4365549,26.7768554 26.5548608,26.7311775 26.6727098,26.6850428 L27.0879222,26.5279108 L27.8036952,24.3810484 L30.1972183,24.3810484 L30.913905,26.5288244 L31.3295741,26.6859565 C31.4483367,26.7311775 31.5661857,26.7777691 31.6812942,26.8302986 L32.0860005,27.01164 L34.108619,26.0003307 L35.800986,27.6926978 L34.7896768,29.7153163 L34.9710181,30.1200227 C35.0226342,30.235131 35.0692257,30.3520665 35.1144468,30.4708291 L35.2715788,30.8874118 L37.4193548,31.6040984 L37.4193548,33.9976216 L35.2697518,34.7143083 L35.1126198,35.1308909 C35.0673986,35.2496534 35.0208071,35.3665889 34.969191,35.4816974 L34.7878497,35.8864037 L35.7991589,37.9090222 L34.1067918,39.6004757 Z" id="Shape"></path><path d="M29,28.1229839 C26.4210244,28.1229839 24.3225806,30.2214276 24.3225806,32.8004032 C24.3225806,35.3793788 26.4210244,37.4778226 29,37.4778226 C31.5789756,37.4778226 33.6774194,35.3793788 33.6774194,32.8004032 C33.6774194,30.2214276 31.5789756,28.1229839 29,28.1229839 Z M29,35.6068548 C27.4528887,35.6068548 26.1935484,34.3475145 26.1935484,32.8004032 C26.1935484,31.2532919 27.4528887,29.9939516 29,29.9939516 C30.5471113,29.9939516 31.8064516,31.2532919 31.8064516,32.8004032 C31.8064516,34.3475145 30.5471113,35.6068548 29,35.6068548 Z" id="Shape"></path><path d="M21.0625473,23.5401178 L12.8163117,15.2938823 C12.9912582,14.9270886 13.0967742,14.5228389 13.0967742,14.0907258 C13.0967742,12.5436145 11.8374339,11.2842742 10.2903226,11.2842742 C8.74321129,11.2842742 7.48387097,12.5436145 7.48387097,14.0907258 C7.48387097,15.6378371 8.74321129,16.8971774 10.2903226,16.8971774 C10.7224357,16.8971774 11.1266854,16.7916614 11.4925655,16.6158014 L19.738801,24.8620369 L21.0625473,23.5401178 Z M9.35483871,14.0907258 C9.35483871,13.5754788 9.7750756,13.1552419 10.2903226,13.1552419 C10.8055696,13.1552419 11.2258065,13.5754788 11.2258065,14.0907258 C11.2258065,14.6059728 10.8055696,15.0262097 10.2903226,15.0262097 C9.7750756,15.0262097 9.35483871,14.6059728 9.35483871,14.0907258 Z" id="Shape"></path><path d="M38.2602854,24.8629505 L46.506521,16.6167149 C46.8733146,16.7916614 47.2775643,16.8971774 47.7096774,16.8971774 C49.2567887,16.8971774 50.516129,15.6378371 50.516129,14.0907258 C50.516129,12.5436145 49.2567887,11.2842742 47.7096774,11.2842742 C46.1625661,11.2842742 44.9032258,12.5436145 44.9032258,14.0907258 C44.9032258,14.5228389 45.0087418,14.9270886 45.1846018,15.2929688 L36.9383663,23.5392042 L38.2602854,24.8629505 Z M47.7096774,13.1552419 C48.2249244,13.1552419 48.6451613,13.5754788 48.6451613,14.0907258 C48.6451613,14.6059728 48.2249244,15.0262097 47.7096774,15.0262097 C47.1944304,15.0262097 46.7741935,14.6059728 46.7741935,14.0907258 C46.7741935,13.5754788 47.1944304,13.1552419 47.7096774,13.1552419 Z" id="Shape"></path><polygon id="Path" points="3.74193548 20.6391129 13.0967742 20.6391129 13.0967742 22.5100806 3.74193548 22.5100806"></polygon><polygon id="Path" points="3.74193548 24.3810484 13.0967742 24.3810484 13.0967742 26.2520161 3.74193548 26.2520161"></polygon><polygon id="Path" points="3.74193548 28.1229839 13.0967742 28.1229839 13.0967742 29.9939516 3.74193548 29.9939516"></polygon><polygon id="Path" points="3.74193548 31.8649194 13.0967742 31.8649194 13.0967742 33.7358871 3.74193548 33.7358871"></polygon><polygon id="Path" points="3.74193548 35.6068548 13.0967742 35.6068548 13.0967742 37.4778226 3.74193548 37.4778226"></polygon><polygon id="Path" points="44.9032258 20.6391129 54.2580645 20.6391129 54.2580645 22.5100806 44.9032258 22.5100806"></polygon><polygon id="Path" points="44.9032258 24.3810484 54.2580645 24.3810484 54.2580645 26.2520161 44.9032258 26.2520161"></polygon><polygon id="Path" points="44.9032258 28.1229839 54.2580645 28.1229839 54.2580645 29.9939516 44.9032258 29.9939516"></polygon><polygon id="Path" points="44.9032258 31.8649194 54.2580645 31.8649194 54.2580645 33.7358871 44.9032258 33.7358871"></polygon><polygon id="Path" points="44.9032258 35.6068548 54.2580645 35.6068548 54.2580645 37.4778226 44.9032258 37.4778226"></polygon></g></g></svg> 