<?xml version="1.0" encoding="UTF-8"?> <svg xmlns="http://www.w3.org/2000/svg" xmlns:xlink="http://www.w3.org/1999/xlink" width="74px" height="74px" viewBox="0 0 74 74"><!-- Generator: Sketch 60 (88103) - https://sketch.com --><title>Understanding-data</title><desc>Created with Sketch.</desc><g id="Understanding-data" stroke="none" stroke-width="1" fill="none" fill-rule="evenodd"><g id="Group" transform="translate(10.000000, 6.000000)" fill="#2E86BD" fill-rule="nonzero"><path d="M27.624375,9.21121875 C26.9350313,9.21121875 26.3764688,8.6518125 26.3764688,7.96246875 L26.379,1.71871875 C26.379,1.029375 26.9375625,0.4708125 27.62775,0.4708125 C28.31625,0.4708125 28.8756563,1.03021875 28.8756563,1.7195625 L28.873125,7.96246875 C28.873125,8.65265625 28.3145625,9.21121875 27.624375,9.21121875" id="Path"></path><path d="M38.8572188,12.9591563 C38.5948125,12.9591563 38.3357812,12.8764688 38.1105,12.7094063 C37.5561562,12.2959688 37.4464688,11.5138125 37.86075,10.962 L41.6078438,5.9686875 C42.0204375,5.416875 42.805125,5.30634375 43.3560938,5.7189375 C43.9070625,6.13321875 44.0175938,6.91621875 43.605,7.46634375 L39.8562188,12.4588125 C39.6132188,12.787875 39.2369062,12.9591563 38.8572188,12.9591563" id="Path"></path><path d="M15.1394062,12.9515625 C14.758875,12.9515625 14.3867812,12.7794375 14.1395625,12.4512188 L10.3958437,7.45621875 C9.98240625,6.90525 10.094625,6.12225 10.648125,5.7088125 C11.1965625,5.29621875 11.9787187,5.40675 12.393,5.95940625 L16.1367187,10.95525 C16.5501562,11.5062188 16.4370937,12.2892188 15.8869687,12.7018125 C15.6642187,12.868875 15.400125,12.9515625 15.1394062,12.9515625" id="Path"></path><path d="M6.39478125,21.6869063 C6.2083125,21.6869063 6.017625,21.6447188 5.83959375,21.5552813 L0.84628125,19.0569375 C0.2295,18.7472813 -0.02025,17.9980313 0.2885625,17.38125 C0.59821875,16.7653125 1.346625,16.51725 1.96340625,16.8226875 L6.9575625,19.3210313 C7.57434375,19.6306875 7.82240625,20.3799375 7.51528125,20.9975625 C7.2950625,21.434625 6.854625,21.6869063 6.39478125,21.6869063" id="Path"></path><path d="M47.5950938,21.70125 C47.1360938,21.70125 46.6981875,21.448125 46.4779688,21.0119062 C46.1691563,20.3942812 46.4205938,19.6450313 47.037375,19.335375 L52.032375,16.8404062 C52.6491563,16.534125 53.3984063,16.7821875 53.7089063,17.3998125 C54.0151875,18.01575 53.767125,18.7658437 53.1486563,19.0746562 L48.1545,21.569625 C47.9714063,21.6599062 47.7824063,21.70125 47.5950938,21.70125" id="Path"></path><path d="M36.3462188,61.5152822 L13.8737812,61.5076875 C13.213125,61.5068437 12.6773437,60.9710625 12.6773437,60.3104062 L12.6840938,41.6230312 C10.233,38.3644688 8.94121875,34.5034687 8.9429046,30.4264688 C8.94628125,20.1285 17.32725,11.7542813 27.624375,11.7584984 C37.9223437,11.761875 46.2965625,20.1428438 46.2931875,30.4408125 L46.2923437,31.465125 C50.0352187,41.1336563 50.034375,41.4095625 50.034375,41.677875 C50.0335313,43.0261875 48.9366562,44.1230625 47.5883437,44.1222188 L45.0402188,44.121375 L45.039375,46.6695 C45.0376875,51.053625 41.7715312,53.4929063 37.5460312,54.0759375 L37.5443437,60.3205313 C37.5435,60.9803437 37.006875,61.516125 36.3462188,61.5152822 Z M15.0710625,59.1148125 L35.150625,59.1215625 L35.1514687,52.9588125 C35.1523125,52.2981562 35.6880938,51.762375 36.3495937,51.762375 C39.8190938,51.7632187 42.643125,50.1373125 42.6448125,46.6678125 L42.6465,42.92325 C42.6465,42.26175 43.1822813,41.7259687 43.8437812,41.7259687 L47.5883437,41.7276562 C47.5959375,41.7276562 47.6018438,41.7259687 47.6069063,41.7234375 C47.21625,40.5447187 45.2300625,35.3489062 43.9787813,32.119875 C43.9264688,31.9815 43.8977813,31.8346875 43.8977813,31.6861875 L43.898625,30.4382812 C43.9011563,21.4607812 36.6010313,14.15475 27.6226875,14.1513738 C18.6451875,14.148 11.3391563,21.4489687 11.3366232,30.4273125 C11.3349375,34.101 12.5406563,37.5755625 14.8221563,40.476375 C14.9875313,40.6873125 15.0778125,40.9480312 15.0778125,41.2171875 L15.0710625,59.1148125 Z" id="Shape"></path><path d="M27.6066563,22.539093 C24.00975,22.5374062 21.0853125,25.4618437 21.0836248,29.0579062 C21.0827813,32.653125 24.006375,35.57925 27.6024375,35.5800945 C31.1985,35.5817812 34.124625,32.6581875 34.1263125,29.0629687 C34.1263125,25.4669063 31.201875,22.5399375 27.6066563,22.539093 M27.60075,38.5728761 C22.3543125,38.5711875 18.0891563,34.3018125 18.0908432,29.0570625 C18.0925313,23.810625 22.3610625,19.544625 27.6075,19.5471551 C32.8539375,19.5488438 37.1190938,23.8182188 37.1174068,29.0638125 C37.114875,34.3085625 32.8471875,38.5754063 27.60075,38.5728761" id="Shape"></path><path d="M27.6049687,27.3872813 C26.68275,27.3872813 25.9326555,28.137375 25.9326555,29.05875 C25.9318125,29.9809688 26.6819062,30.7319063 27.6032812,30.7319063 C28.5263437,30.7319063 29.2755937,29.9818125 29.2755937,29.0595938 C29.2755937,28.1382187 28.5271875,27.3872813 27.6049687,27.3872813 M27.6024375,33.7246878 C25.0298437,33.7238438 22.9390312,31.6305 22.9398747,29.0579062 C22.9407187,26.4861562 25.0332187,24.3945 27.6058125,24.3953435 C30.1775625,24.3961875 32.2692188,26.4895312 32.2683753,29.0612812 C32.2666875,31.6330313 30.1741875,33.7255313 27.6024375,33.7246878" id="Shape"></path></g></g></svg> 